<?xml version="1.0" encoding="UTF-8"?><svg id="Camada_2" xmlns="http://www.w3.org/2000/svg" viewBox="0 0 831.0580768 802.9396489"><defs><style>.cls-1{fill:#fff;fill-rule:evenodd;}</style></defs><g id="Camada_1-2"><path id="Rio_Grande_do_Sul" class="cls-1" d="M32.9572925,347.9835976l.5459156-4.177116-.6345205-5.0724211.1229029-1.8038533,3.4784451-5.845925,5.4706168-5.1843896,1.5834485-1.059936,5.8964891.161309,3.8957442-1.1981692,1.2633273-.6846555,2.9010881-2.6695275,4.973286-4.9637966,6.2194726-9.3647831,1.8521198-2.7945841,3.6613711-3.8216337,3.1726161-4.1211317,4.9246984-3.5648768,2.2579834-1.4483046,2.0036072-1.3825098,1.7092138-1.9552189,1.9607332-3.0579403.1829232-2.4621776-.1486307-1.0928444,1.2290292-3.959867,1.4319611-.7899803,3.7585518-.2600566,1.3748031-.9183366,5.2848313-10.0428613.7488558-2.2350294-.5687893-3.9467125,1.706357-4.1441854,3.3612585-4.4601819,1.4919869-4.177116,1.5548695-.7966018,3.4298547.0987697,3.1354613-2.7419438,1.2804736-.5200689,7.3741865-.9480118,1.2004503-.4937377,1.1232726-4.3416805,1.0432492-2.1922219-1.849263-2.5971333.5745029-2.8571456,1.6006003-2.0836195,1.4519697-1.020406,4.5016829-1.5207431,1.3605081-1.6392445,2.1922551-2.6398966.5659215-1.3627337.271528-3.7031101-.5001931-5.5233955.7145521-1.965118,1.0946936-1.1290305,2.0807738-1.217901,7.7228922-.6813779,2.8210481-3.5648547,1.4519697-3.3640599,2.4409177-3.3245742,8.1287559-7.6168919,2.895369-1.2080462,1.8349679-1.8499163.2429491-1.5931594-.8317359-1.9782726-1.3119205-1.889402-.5830733-1.7050836.271528-1.7050836,1.2547514-2.1395816,2.8496382-1.1751156,3.6356544-.2797884,3.3412499-1.4713582,3.2526451-.2863656.5316289-.8591191-.042874-.9776205-2.0579084-5.7834299-.1028888-1.237655.2515305-1.1586614,2.8467814-4.6543994,2.5552337-.3061196,3.0354182,1.0697908,6.0879771.3982898,2.1522268.9447121.688841.7011319.9574901,2.3634079.4658784,1.8071308.9374926,1.2245004,1.4719783-.0987475.6802485-1.2014468.0886048-2.9164074,2.2465452-6.0632183-.603093-1.6030364-3.0782922-2.1757898-3.0068281-2.778152-4.2616017-1.540497-.946063-2.3403764,1.1089886-1.454904,4.1958512-1.5734055,3.3869807-.8130339,4.2072784-4.298895,1.2090206-.6484473,1.1490059-.3456274.6059498-.2863656.4001501-1.1290305-.2057997-.9414124.8946186-1.0796678-.1714961-1.7083722.285812-.8492421,1.0803986-1.5141658,1.2976254.0131656,1.117559.6682013.1772096.8722847-.5516265,1.7314148.2229404.5365342,2.5866805,2.1231274.4544513.0362082.931779-1.0105401.0886048-1.6721641.1086024-.9973745.9432062-1.7906545,2.7038754-.7537943.9917938-3.1402336.8374606-1.2870398,1.117559.0526624,1.9235728,1.9914492,1.1032751.5990846.888905-.1514099.8860482-1.379199,2.3780462-3.7129871,4.3101893-2.4522785.5487697-.7044205.0657505-1.606325-.8202977-1.8696591-.7288361-.4575406-.2057997-1.5207431,1.1461491-1.0697908,3.0954551-.3225849.6259473-.7735371.6859621-3.1665648.6402313-1.2870398.8946186-.5365342,1.303339.0362082,2.7638902,1.2409547,1.3776599-.3785359,1.0403814-1.1422071,2.2151205-4.4009423,3.8585948-3.5549888,1.4776919.0395079,1.346213.6319931,1.5119955,2.3370767,1.8006643,1.6853297.4258834.1843295.6259473-.3917015.4973253-1.0994106-.3401132-2.9756581.4773277-.7307406,1.5806028-.8755844,2.6466953-.3851242,3.0725786,1.1290415,1.7435063.717575.9746752-1.16195.1028666-1.8005314-1.1032751-1.2804515-4.7446209-3.0217432-.3830093-1.3364136.3429921-.9644549.9832234-.7702485,2.2951549-.3818356,2.9353862,3.0941485,1.1518627.2764997,1.2690354-.7867027.9546555-2.182367,1.2604429-.1711639,1.7435285.8163336,1.2118774-.0131656,1.3233587-.6846666.7174311-1.6556988.200064-.8492532,2.5237647-3.0974482.131501-3.2653235-.2543873-4.6905965-.1914714-2.267949,1.0575221-1.2245004,1.1775738-.5365342,2.7324655.3258735.8917839-.6188275,1.0918257-2.2152866.777468-3.8578197,1.8406815-4.7827779.7974212-.4410753,1.3005044.7965797.917495,4.7992321,1.1432701,1.1191646.9832234-.0691277.6945546-.2995423.5973794-.9578666,1.1832874-1.5865821,1.9578986.2337032,4.2644364,1.323248.9803887-.5562881.1486196-1.4022416-.8146284-3.4990267.0600369-1.7643233.745999-1.1454958.7688755.065828.7088386.7011208,1.4548154,3.7623608,1.2233267.358782,1.0632578-.5365342.6259473-.8755844.7831594-2.6991584,1.7463631-3.7162757.1429281-2.0079145.5230143-1.1422071,1.1318651-.0954589.7459547.5036257,2.0436687,2.3403653,1.2147121,3.1533992.6145202.2699114,1.3976796-.8492532.5944783-1.4121186.7860162-.6747896,3.0497022-.0164542,1.8092347-.2699225,1.3690674-.7636602.2343898-1.5207431-.7116953-.6649126-2.0379109-2.0869081-.1829232-1.0171173.7431201-.6945435,2.8753493.1020472,1.0060999-.7899914,1.1918799-1.25742.8117273-.0592507,1.6406397,1.2738631.6002141.9842089,1.7263656,3.2027841.9517987,1.1389074,1.3347859.7175861,1.1118233-.9084928.3315649-1.4614923-.6231127-2.3370767.1086245-1.965118-.1143602-.8525418.6745792-.2370029,1.4805265,1.2146235,1.3833735,1.5240317,1.0804207,2.1593245,1.1175369.5431225,1.7321013-1.2475319-.0743209-2.9427386.7374065-1.8564935,1.2090428-.5266683,2.163654-.0493738,1.2690354-.868996.5545054-1.4582037-.1086245-1.6886183.1657603-1.5437856,1.017527-2.6695275,1.0689936-2.0967796-.1171949-1.932204.6859399-3.0414861,1.3462352-1.3265366.8117273-.0625394.9089468,1.0895392.1743307.8558249-.3401132,2.7584036.2800541.4081668,1.160433.2896598,1.449124.3028365,1.9464271.1415385,1.1632677.0888761,2.3208661-.7472059,1.0547096-1.5372028,1.3833513-2.4489843,3.0125639-1.1817039,1.160433-2.267949-.0228543-2.6366135.7660187-1.8169912,1.9207381-.4476692,1.9406692.4081668,1.1090108-.4608292.3086663-1.5799938-.197185-2.4160703.6287598-.8854558,1.7292667.0230426.9574901.7274575,1.0118356,1.5569512.9831791.401584.5287943-.2040834,1.4434104-2.0046148.3229724-2.3535365,1.0089567-1.4680751,1.6692076.2567458,1.7092027,3.9137763.631683.8294992.4544291.217249.5573622.2666283.4659006.1514155.6945325.2271204.6888189-.2007892.8288681-.4674176,2.4723424-2.3206169.6373523-.2139548.9260876.7175806,1.6063139,4.4239848.1486417.0329195,1.1060876.0460796,1.7463631-.9644549.2458169-.1547041.0771555-.0460851,1.1004183-.9545835,1.0232185-.6550357.8802903-.4048726,1.3005265-.4805776.9689173.1185015,1.120438,1.1586614.5259153.6089561.1629035.8953328.15719,1.0434541-.2715502,2.2811201.2258415.7439118.6030708.3291621.7802805-.2238318,1.6663287-3.6306938.7488779-.3390391,1.2776279.391707.9832234-.2238318,2.7496062-1.6754527,1.0718061.1547041.5144882.1481268.0200197.0197484,2.2951328,2.4127817,1.663494.855836.1229528.0460851.0457087.0131656.460187-.0065828,1.3233366-.2040779.0628937-.1645866.0514222-.661624.1257874-1.5503684-.3858661-.8624132-1.1089665-1.6458273-.2315108-.7636602-.1514764-.9447065.1228642-1.0796622.7688533-.5167913.4716142-.1119131,1.4233907.2567458.2687155.1777467.988937,1.3759104,1.1546752.944701,4.890428-1.8301568,1.0975393-1.4845349.7431201-2.2054096,1.0889468-1.6557043.5202018-.3949957.5945226-.2633341.9488976.3818356,1.1747391,2.0342402.4459252.7735371.5372982.1975006,1.1147244-.0032886.1800443-.0164598,2.0693356-.0263367.302997.1876292.8774557.7537887.3029527.4476636.1943504.5003316.1514764.391707.0057136.2666228-.3658464,1.313371-.5316289,1.5865766-1.7892371,3.7590667-.1458071,1.1092876-.045753.5924963-.0114272.1250843.0457087.1876236.3144242.5529995.7631397.0954589,1.8578444-2.5049519,4.1386711-2.2416178.9746752-.8262051.0457087-.0263312,1.2690354.1283729,3.5727607,2.3831563.8231988-.0197484,1.2004281-1.4977005.4030512-3.3871136.4115551-.661624.3544193-.3192907.3458711-.3127079.4458809-.151421.8917618.4180382.8660728,3.3706538.5144439.618833.3687254.3357505.3258071.0263312,1.7978297-1.0039517,4.1615697-1.4582037.0743209-.0592452.0314026-.0263367.1057677-1.4088299.0257333-1.0368713-.8374606-2.4884866-.0571358-.1678752.1686171-.9348296.0743209-.2830825.0686073-.1086245.1486417-.2337088,1.7063238-1.8894075.9089468-.3653758,1.8035432-.2995423.3772736-.0263312.6716781.3620817.4230266.8525363-.0085925.0658335-.660251,1.7511632-1.820684,2.5115292-.042874.1579983-.0399951,2.1691959.4515945,1.0401599,1.2690354.3061196,2.4209202-2.8571511,1.0032431.5859135.831747,1.398953.1171949.2732056.1858022.9348296-.0657283.5727479-1.5234448,1.974995-.4658563,1.0697853.2543651,2.0276574.128622.1909178.9232086,1.1257474,1.3061958.4048726.7774458-.5299514.0914616-.1316671.3601329-4.2396498.5802608-1.8927017.1943504-.1448327.660251-.1777467.042874.0032886,1.4348622,1.105999.0714419,3.2653179,1.2233267.477289.4973474-.0691277,1.7920718-.4081613,1.4376968-1.3495792.3630118-.3357449,2.4723424-1.7840772.0314468-.0164598,1.2547736-.0493738.6688435,1.0895392-.2800984,2.9986951.2715502.4279152.5659547.292954.5316289.0691277,1.6349261-.9512893.8031791.0592507,1.0089567.1283729.946063.1217901.5087303.1020417,1.3319291.26004.6916978.3554989.4430462.227126.3944144.4279152.1057677.7834086-.5373425,2.5609085.0743209.2007892.8460088,1.4549095.3201378.0954589.8917618-.1514155,1.2090206-2.0046204,1.0375246-.5266628h.3258514l.3630118.1415385.5430561,1.2310777.2886909,2.8242371.0143061.2830825.8088484,1.0895337.0972195.0362082.6802264.1349557.1800886.0395023.1400492-.0526679,1.0060777-1.7774889.2915256-2.6300307.9689173-.9940803.6116191-.042791.1515207.0131711.0314468.0032886.1028888.0888761,1.3519488,2.5477429,1.4748572.5859135.5945226.0394968,1.2518946-.1810408,1.6720423-1.1487844.7717323-.6879552.0942963-.0822933,1.9207381.1579983,1.0661368-.2238318,1.1832874-1.0302885.1428839.0493738.2944045.1547096.0285679.0164598.9117815,2.3469481,3.8071062.5924963,1.8407037.0987531.268627-.1020362.1229528-.0493793.0228543-.0394968.0742766-.2699169-.4630216-2.0144918.1057677-.7965797.2458169-.391707,3.424119-2.1296991.4630216-.032914.6431102.0921647.0857037.1217901.3572982.5266628.0085925.0296254-.7774458,2.0539886-.3887008,1.0006631.1457628,1.3265366,2.2408316,2.712324.4944685.3719531,1.1004183.671501.857436.1514155.2086122-.9052042-.6287598-3.2027785.3658464-.4377922.4030512-.2764997.5573179.2896653.5487697.4114554.0800344.1810353-.285812,3.0052779.8860482,2.3337825,1.0718061-.0559566,1.4576722-1.649116.4030069-.2040779.0800344.0098714,1.7720964,1.6721585,1.489119.7505001.9289222,1.0599138.285812.0691277.5802165-.1152073.2343898-.0493793.2457726-.3127079.1400492-.9512893-.3315649-1.1422016-.7945423-2.040823-.1114813-1.1224532.2372244-1.2376605.834626-.2699169,1.7321013.5069144,1.6691633-.3719586.7631397-.1711639,1.8692716.9052042.1143159.0658335-.0085925.6352873-.6888189.5760365-2.4580363.8755788-1.3005265,1.5701168-.0143061.1250843.2200837.6056619.128622.1119131,2.5409054.1382499.2572441.0131656.763184.3719531,1.3433563,2.4819094.3372785.1382443.4573081.184335.7488336.0263312.5630758-.5167858.657372-1.1718325.8488878-2.4029047.9060679-1.6359559,1.0861122-1.2442433.7660187.1217901.1886368.0329195.4544291.5233741.0743209.3061251-.7374508,3.7063987.5516486.26004.7459547-.3522102,1.5291584-.477289,1.1861663-.3686645.7145521-.0757105,1.4176771.7537887.1800443.7241634-.1200295.9940803-.197185,1.6589929.1200295.358793.1143159.1020362.9374704.8229164.9146161-.3225849,1.6892273-.8722902,2.5294783.7801255.2743848.0822933.5745472-.0592507,2.3523129-1.6096192.9403494.3192907.0543012,1.0796622-1.4319389,1.4121186.1943504.8294992.414434.4377866,1.3576624,1.1125762.6602067.3587875,1.2118996-.3851242,2.4809349.0164598,1.1461712.7867027.1200295,1.3199538-.4773277.3061196-3.9157528-.5464112-.3544193.1086245-.7917076.4048671-.5202018.9019156.0485876.1217901.5173671.4641178,1.1375344.358793,1.7720964.0592507,1.9493503.5299569,2.0893109,1.7742002.1772096.3390391-.0971752.6747896-.3801525.7142864-2.4837696,2.1790784-.0972195.2007948-.0514665.4575406.0171407.0460851.4287401.5332456.4687795.2205376,1.0317667-.2567458,1.5748671-.9249581,1.4805708-.6023733.6631299.0131656.6145423.3094193.3429478.3258735-.1857579,3.7656495,1.3404773,2.9229846.1028888.0427965,1.1890009-.2007948.414434-.6583243-.6659645-3.0316091.3429478-.6188275.2229626-.2797884,1.6463533-.6155389.1114813-.0032886,1.3290501.6583243.1229528.3192962.0742766.2863767-1.2118553,3.874274.3372342.4674176.391624.4377866.986058-.5892077,1.603435-.9611663.1657825-.0362082,2.4151623,2.0770312.2515305.0263312.8546013-.2106717.1486417-.8229109-.5058957-.7603715-.9403494-.9052042-.2029429-.6155389.2972835-1.3002054.045753-.1020362,1.4890747.1283674,3.2069585-.5760421.0057136.0032886.1714961.1448327,1.0003641,1.0599138,1.5662745,1.8564935.305876.0855819.6087844-.2501685.1886368-.2139604.1429281-.6682013,1.2404232-2.5214062.4458809-.2896653.2200837-.1448327h1.0346899l1.2347539.9907861.2401033.5299569-.2772638,1.2738742-.0914616.4772945.7316929.9743208.5373425.3094193.7774458.3390391.1772096-.0131656.657372-.3949901.285812-.4772945.3772736-2.495075,1.1518405-.3423277,1.0089567.6682013.0286122.0592507.2029429.6978322-1.2719143,4.4766472.9546555.9841978,1.5806249-.5694537,1.4291043-1.974995,1.228996-.217249.2086565.1316671.1400492.4641289-.0943405,1.2837512-.6974114,2.6300307.045753.5036257.6831053,1.2212007.1543553.1678752.3401132.36867.6002362.510203.374439.0592507.3143799-.0427965.2543651-.1810408.4287401-1.6359559.0314468-.1777522.1686614-.4871604.2743848-.227126.3372785-.1744525,1.4948326.3719586,2.6666928-.7636602,1.8806988.3785359,1.1718602,1.0664911.1372146.1349557.2543651,3.4035678.5144439.5924963,1.2090206.4279208.1572342.1711639.6230905.6649126,1.6549015,2.3206114-.1486417,2.0441116.1772096.36867.2743848.227126,1.2518503-.0131656.1486417-.1152128.8488435-1.0105401.4230266-1.1454958.5059399-.6023733.4344537-.3489161.8774557-.4312094.3115453-.0789936.197185.0427965,1.0118356.9644549.5058957.6221272-.7231447,2.9690698.7917076,1.2409547,1.6034793.8492421,2.3808808-1.0072404,1.0118356.1777522.5487697.2534572.2172047.2600455.1629035.5892077.1772096,1.5108772.9689173.9973745-.7088386,1.1389074-.0028789.8755844,1.5891732.737329,1.8349901-.1777522.3143799,1.4055413-.1057234,1.6688644,2.7639123,1.1882812.6316388,1.965118.5287943.358782.1600689.0164653.1000541.0131656.5973573-.6484584.631683-.4410864,1.3461909.8459535,1.9349999.0329195,1.2804626,1.0434485,2.1408218,2.0901968,2.2437105.1217901.3086663.207372.0114715.0592507.0714419.3258735.1371703,2.4983636.5659547.292954.1629035.0724163,2.5009546-.5661651.703125.1843295,1.2375885.6122502.5087746.7801255-.2772638,2.0704539.7431643.8591191,1.9407578.292965.2114911.2699114-.3258514,2.0013262-.2343898,1.4154072.1314567.3291621,1.8349901,1.398953,2.1465354,1.4022416.0571358.1119131-.2915256,2.5806569.1171949.9874975.5373425.5924963.3772736.3357505.9775098.0362082.8231988-2.1066621.0914616-.0987475.5716683-.3159965.2172047-.0131656.5487697.6945435.7517126.9710322,2.8353542,1.5569512,1.7120816.0065773.4544291,1.4285839-.5058957,1.1652497.9403494,1.369322-.2515305,1.16195,3.0954772,1.0895337,1.3347637,1.6425332.3229724.4674176.0371604.36867.1686171,1.6754527-.6802706,1.540497-1.8378247,1.2146235-.4258612,1.0533255.1772096.0362082,2.1208021.4279208.5773376.4871604.7088386,1.7544574-.5687893,2.3535309.2200837.6879552.3572539.3719586.7660187.2007948.5173671-.2468799,2.4009005-2.1790784.571624-.0065773.9346358,2.4489898.1086024.1152018,2.7324655-.1349557.6087844.4739948.1772539.2666228-.7088386,1.6293565.9403494,2.0539886-.6745128,1.6063361.0399951,1.0664911,1.1261515.2435802,1.2404232-1.3824876.4773277.4772834.1686614,1.1586614.1314567.8854503.6430659,2.4950639.0400394,1.8960014.2800984.1514099,3.9300589,2.1659128,1.4119192.141533.1143602.1547096.0371161.3192962.2372244,2.1329822,1.4176771,1.1224532.7231004.6978322,1.4834055,2.1428592.0514665.0888706-.5802165,1.9124556,1.7235088,1.0072514,2.1065403,2.1264049-.4544291,1.8235851.7888287,1.4812352,1.3319291.2205487.1171949.009877,1.3062401-1.3857874.6030708.0032997.1372146.0296309,1.5519684,1.3857874,1.4577165,2.5148178,1.3748031.6780782.5830512.8360876.7573819.2370029.8231988-.3258735.0342815-.0131767-.2514862-2.2086982.3115453-.4279208.0571358-.0362082,1.0518307.0230315.3229724.0395079,1.5262795.9479896.0599705.0230315,2.9668109.2633341,1.5577263-.4772834,1.0346456,1.5865821,1.2804626.8393651,1.1061318.0625394,2.7724605.1580093.8745767,1.3495792.9003543.227126.1400492-.0789936.808937-2.3963163.0543012-.1086245,1.117559-.4180438.2286319-.0197539.9232086.9315354-.3001181,3.2521579.5687893.9150812.1257874-.075716.8146063-.5628765-.2572441-2.1264049.1600689-.1579872.988937-.5727534,1.228996.2402805,1.6378051.4970374.5345079.7702485.3400689.5299458.0057579.0032997.4744488.1580093,1.6977755.5102141,1.646309-.7307406.4315748-.217249-1.1375787-.3258735-.0342815-.0822933-.0743209-.3061196,1.7349803-1.6524212.2200394.1678642,1.0861122,3.2949433,1.2004724.6089616.6916535-.2995423,1.3833956-1.9716953.2544094.0263312,1.0175492.8163336.2257972.2040723.52875-.0131545h.7202657l.197185.3357505,1.0947047,2.2482061.3029527,2.5016633.4887106.3192962,1.8263976-.4180438-.6402756-2.0210801-1.4405314-1.9223326v-.1645866l.128622-.1152018,1.0889468.0559621.1514764-1.3561564.0514665-.0263312.0228543-.1942175,1.8520865-.9809202-.2200394-.7998794-.017185-.0296309.3544193-.2534572.1857579.131656,1.2118996,1.3726107.197185.3949901-.0057579.0131545-.460187,1.1882923-1.0775196,1.0270054-.0085925.4509522.0915059.7636712.2029429.1448327,1.6434743-.2205487.8146063,1.4680807,1.4233464-1.4977116,1.4519586.8360876.3972933-.1580093.7116732-.2863656,2.5809448.2764887.1057677-.0658391.9861023-.5925074.3172146-1.8597932.5431004-.6221161.4687795-.1152018,1.2090649.7142864,1.5548917-.1678642-.1028445-1.217901.8545571-.6649237.9260433-.1448327.4630216,1.8696481.9488976-.5826304.6088287.0559621.0829134.0427854.0800787,1.9420865.7431201,1.8367396,1.4948326-1.3561564-.1486417-.868996-.7717323-.6122392.657372-.5957849.4115551-.227126,2.5523326,1.4088188.5001378-.009877.7003346-.3357505.3372342-.2830881-.8088484-1.7445693.1314567-.1711639.4087205-.0724163.8517224.7044094,1.0518307-.6451698,1.5663188.1909178.2600787.2304257-.1457185.1744636-2.1379428.9216584,1.4433661.954589-.0486319,1.3693331-.5658661.7998794.308622.803157.0829134.0362082,2.4494881-.4279208.1057677.0822933-.4344094,1.0302829.5858858.3555044,1.4547933-2.1659128,1.5548917.6748007-.5229921-.6550467-.1000984-1.1224532.7374508-.1218012.7373622,1.9124556.7945866.5332456.460187.8360876.7803248.1152018.240059-.2567569-.4973031-.7175861.7774015-1.4812352-.3544193-.4410753.9260433-.6056619.4230709-.8624188.1200295-.0329085.2686713.0526624-.0314468,2.7320668-.5487697,1.2771628.0543012.1020472.7974212.9512893,1.7606692-.9776205.0771555.0263312.3572539.4838607.1342913.3390502-.5345079.4707062.1943504.3851132,1.5920078,1.2245004-1.9235728,1.9157332-.2372244,1.3594562.2029429.2402805,1.7463188.5233686.5058957,2.1593356.5773819.8459645.8745767-.4279208.0571358.1579872.3001181,1.0072514-.417313,1.171838.240059,1.4252952,1.1433366.2402805.7631397,1.4746579-.2229626.7965797-1.1404133.4772834-.3887008.1152018.1600689-.4015896-.9117815-.3719586-1.3261712-.0822933-2.7581987.6813779-.3686811-1.5997367-1.449124,1.4812352-.9232086.2666338-.434498-.9117815.2600787-1.3693331-.5744586.2567569-.2572441.1119242-.4830413.3225738-.7888287,1.4713582-.5687893.085593-.1086024.7011319-.8488878.5826304.2715059,1.0829453-.3830315.5365453.7631397.009877-.1743307.5200689-1.0289763.4180438-.7202657.8163336-.8689074-.1974951-.2372244,1.2212007.4887106.2402805.1543996,1.0928223,1.1232283-.0164542.2143701.6550467-1.1461712.1514099-.7345275.8821506-.1943504.661624.4401673.2435802-.0943405.2139493-.3343996.3653814-.2486516-.1481324-.3258071-.9479896-1.7635039-.2896653.2943602-.3620817-1.2147342.5398228.240059.358782-.485876,1.7972539.5116535.1481324-1.1089665,1.5174434.4687795,1.0335826-1.3519488.217249.128622-.7307406-.4687795-.1185015,1.0031988-2.3469537-.2886909-.217249-.9803445.7735482-.3429921-.3949901-.7974212-1.0072514.128622-.7208637-1.0146259,1.0237057-1.1461712.3785359-.0799902.0197539-1.0346456,1.105999.4573523,1.4977116.9432283.6747785-.6659645.6682013.0342815.5299458-.9288779.3522047-.9689173-.3258735.051378.3752584-.4001279-.0822933.0057579.0296309-.4259055.1382554.1772539,1.1026993-.4916338.2863656.2343898.5990846-.4916338.3159965.6402756.576031-.3944586.8854503.34875.7439173.5944783.0888706.0743209.9447121-1.3519488-.5957849-.4258169,2.5213951.068563.5299458.9488976-.0329085-.4744488,3.1632873,1.3833956-.4180438-.3057874.9216584-.5916437-.0065773-.0314468.7965797-1.0404035.5529995-.2372244.7175861,1.8378247-.566154-.0771555,1.2442544,1.1690255-.8854503.9975295-.0888706-.7345275.5957849.017185.7504946-.6002362-.2468799-.1257874.5365453-.6230905.3522047.0200197.4279208.0571358,1.096122-1.1347441.9710433.2915256.2402805-.9917716,1.3890871.3601772.2896653,1.9063877-.1086245-.4344094.3884129.3429921,1.7445693-1.1775295-.075716-.0257776,2.5312721,1.9378346.4311983.3572539,1.0895226,1.3290944.358782.1171949.1481324-1.5119291.7373179-.3630118-.7307406-.4573523.5628765.1029331,2.1560358-.4373327-.6385925-.5659547.4180438-.6487795,1.3462795.2286319.1612869-.9717519,1.2574311,1.646309-.171186.1943504-.3719586.8146063.2205709.0829134.4575295-.8889271.5134916.1229528.6451698-.9975295.2699114.2200394.454252-.5487697.5200689-.0599705.6978322-5.0446947,2.7353444,1.6720866-.2403026.3001181.6682013.3400689-.4838829-.2200394-.3061196,2.0436023-.5365453-.0142618.4147441.4087205-.4081668.7659744.1810408.0056693-.4871604,1.1118897-.7867027.6345177.1876181-.2572441.9117593-1.006122-.2106496.4144783.8097342-.8488878-.1218012-.4144783.2600566.6487795.6484473-.042874,1.1092765-1.3547834-.1843405.0257776,1.3726107.4573523.5991068-.6974114.1448327-.0457087.3752584.2286319,1.3100492.3601772-.1086245.1514764.3950123-.6459449.3620595.0514665-.5332234-1.4462893.4410753-.1629035-.3061196-.7831594.1283784.0372047.0723942.7060039,1.2903395-.263002.7899803-.4544291-.1974951.0914173-.7504946-.700246.5365453-1.7777657-.5957849.8517224.7801255.068563,1.9420644-.5230807.1251009.0372047.651747-.9861023-.358782.017185,1.3265255-.1428839.2007726-.5230807-.2732111-.2772638.7603715.8460531.4476747-.1629035.5003371.4887992.2929429-1.4062499-.0789715-.4515945-.4476747-.7945866.8393651-1.0031988.2962426-.4287401-.312719-1.0289763.9151033.520246-1.7380142-.197185.1941954-1.4691436,1.3462795-.2486516-.4838829.3115453-.3357283-1.048996-.5003371.7145964-.3522047-1.1318208-.0493848-.2257972-.964466,1.6062696-.7438951-.1000098-.4410974.7831594.0197539-1.0346456-.2370029-.1800886.5332456-1.8121358.4081668.3515846.2962426-.2972835.8064567.4772834.5069144-.3343996.4279208.6459449.0065773.2744291.4871604-.4630216,1.3035162.7859941-.2304257-.7431201.6583464.6487795.0362082-.0400394.4081668-.6459449,2.1922662.8031791-.6451698-.2772638.8755733.4287401.605684-1.0346456,1.1652386-.5002264-.1382554.5630315-1.5569512-1.8606791,1.6919069.2572441-.8591191-.3029527-.7998794.0943405-.0987697.963248.2567569.7945866-1.4252952-2.2579724-.4805832-.068563-.4377756-1.4405314-.4608292.6859842-.4608292-1.5090944.1744414-.1600689-.8228887-1.3890649,1.105999.1228642.292965,1.1147244-.2863878.7116732.8393651.0628937.8459645-1.5148523.4970374.2143701.7636491-.4916338.3489272.8374606.1086245.3572539.5102141-.2429823.5431225-2.6295767,1.0697908,1.1289862.1283784-.1372146.4311983.6974114-.3225738-.0485433,1.000652,1.2804626-.3719586-.725935.3489272-.0485433.1547096.128622,2.0145029-.0286122.0362082-.4229823.7537943-.1629035.2896653.5545275-.1678642-.2428937.5694537.1143602-.0131767.4830413.0263312-.0943405.4707283.4115551.0427854.4087205.8920275.588809.388435-.2143701-2.0408341.8117716-.5332456.1657382.747217.5859744.4740059-.2115354.6780782,1.27187.2370029.0571358.121779-.3601772.5957849.7945866.6023843,1.2090649.0329085.5630315.6912328-.197185.8064567.7573819-.3291511.0342815.0032776.6373523-.0098548.1343799.3423499.5058957-.1744636-.6773917.7241634,1.603435-.0230093-.1572342,1.0928223-.6002362.5496998,1.577746-.2370029,1.3061515,1.4285728.2087008-.4476525-2.9010826-4.2659644-1.1203937-.2962869-1.9807972-1.5338754-.9546555-1.5734276-.6745571-.358782-.6487795-2.5971333.6459449-.141533.1714961-.434498,1.7692617.0098548,2.1636318-.9644217.3600886.3423056.1943504-.7603715,2.2665649-.2797884.7831594-.8262106,2.8753936-1.0105511.6945767.2172712,1.466309-.5991068,1.3690452-1.0269832.3029527-1.142185.8317027-.605684,1.5548917.0822933.0971752.0691388.6259252.434498.963248-.0362082.2544094.434498,1.6120275.0592397,1.2976476.8821727,2.1950787.6286934.3687697.5365453.8088484-.0559621,1.2604429,1.0697908-.0228543,1.1257308.3001181.3719586.5687893.141533-.154311.3258957-.4487598.8953272,1.3119094.4476525-.0971752,1.3364247-.460187.1547096.6687992.5233686,1.0432382-.1119021.3143799.0855709.700246.7110088.3858661.3686368.5974016-.2896432.2315551.3653592,1.4605511.2863878.3801083-.4147662.3029527.1612869,2.0464369,1.4351722.2944488.0658169,1.8835334-.2403026.1657382.0526624.6888189.3258735.0028346.7143085-.2715059.2238263-.0257776.2567569.5431004.5167913.2143701-.5003371.2658366.4575295.3401575.3785359-1.3719685.3489272-.1572342.8755954.0228543.0526403.8775-.3554601.6974114.4410531,1.8806988-.4015453-1.774931,2.7419217-.2886909,1.2146456-2.0836417,2.4292248-5.330551,7.7880558-12.6076176,19.6676568-1.2118996,2.1329822-.8574803,1.6524212-.963248,1.853216-.6402756,1.2409325-3.0182774,6.1619658-3.2297243,6.8564761-2.5037893,5.434547-2.3294586,5.3489319-1.1832874,2.7123129-4.4301967,11.0106049-2.566683,7.0210627-1.3833956,3.7722489-1.3261712,3.8610973-4.5445569,13.209404-1.2947244,3.4858611-1.2347539,3.722864-.6831496,1.7379921-.8889271,2.6431741-1.1261515,3.3509054-2.8095767,8.8973766-2.0922342,6.063174-2.5752755,5.4049161-3.7756593,6.859798-7.5914466,11.3299012-3.3670274,5.2040992-9.211978,15.628774-11.5557427,17.4490594-.8860482,1.4615255-6.2223128,10.8064661-2.9353641,4.5885825-3.4755855,4.657677-4.7617616,5.6649506-4.1129821,4.8880805-4.584552,4.6971849-1.8606791,1.7182381-9.757913,9.0027014-8.0630164,8.4792664-5.659237,4.5457971-1.8749852,2.8012056-3.1525688,4.9144339-2.9668552,3.6602804-7.6628442,6.5438236-8.2087792,6.886107-7.125546,5.7142911-6.2080067,3.959867-10.1809839,6.4746848-9.514975,5.0691435-10.4010675,6.7084102-7.036919,5.6912596-3.6756495,3.5451229-6.1509151,6.7577507-10.0179918,11.9191088-.6974114,1.7610236.5915994,3.8183119-.0143061-.0197096-.5915994-3.8150343.3029527-2.3601082-.3572982-.5924852-1.1575984-.4904823.8174409-.1645866.1543553-.8590748,2.1122096-2.8374359.6116634-2.0112253.9289222-.8097342.9346358-4.3779329-.4744488-2.7484989.2057776-.8064567-1.2690354-2.9888237.6659645-.9183809,1.4520029-.4410531,1.2147342-.1547096,1.0203838-1.4582037-.0714419-2.2251968-.703125-1.7709005-.6545374-1.0862007-2.0036515-1.3957086-.2886909-1.0697687-.5973573-.490438-.8060138-.88875-1.1975935-.6352706-1.9292863-2.0474556.1600246-1.4022194-.5316289-1.1685383-.2972392.05594.0228543-.5562549,1.7092027-1.0829675-2.1550836-2.9624704-.4315748-.0164321-.1257431-.9941191-.3230167-.0724163.9003543-.2534793.874621.2468799-.7660187,1.0072736,2.1579625,2.9591928,1.8978395-1.1915698,1.4748572-.2666338,1.5063041.0822933,3.1297145.5200246,5.9165254,3.5846308,1.7577903,1.2541092,2.3151525,1.1817372,4.1472636.2765108,1.7292224-.4608071,2.0922342-1.2936171,2.5009103-2.1757676.1229085-1.0237057-.6373966-1.504311.7545472.2962648.2458169-.5727313,1.2433464-.05594.4830413-1.0434596-.8946407-.009877.1057677.707687-.3144242.1481102-1.6120275-.5233464.3115453.5497441-.3658464.3883907-1.6634497-1.2475541-3.1612056-.1217569-.571624-.7241634,1.1346998.2139714,1.6749212-.3094193,4.2358463-1.3232037,5.7049899.1151575,2.7153247-.3817913,2.5066682-.3423277,2.9982578-1.3923868,7.4456395-7.8341188,4.5560284-6.4253,3.9643404-7.6070371,2.1522489-2.4062155,1.7692175-1.178371.4230266,2.8505462.3344439.0494291-.2343898.2896653.6145423.5661762-.7459547-.3719144.0543012.2501575,2.2951328,2.0539665.9232529,1.5108661.311501.661624-.0571358-.9841978-1.9264074-3.1205019-1.0232628-3.1468109,1.5319931-2.9789467.1600246-1.4516043-1.3061958,2.0803641-.3944144,1.7709005-.1429281-.6188386.7545472-3.1040255,1.706368-4.0454821,1.4090846-1.7346702,1.3805167-.8953494.0314468,3.1961957.631683,1.5272982,4.0872489,2.0441338,1.0603789-.0494291,4.5073965-2.0013041,2.5609694-2.2613828,3.0268257-1.5898818,2.698184-2.7024359,3.6413237-5.5069634,2.5209743-5.888799.7145521-2.8307922,1.3919438-6.9882429.1514764-2.9032086-.4230266-5.8558905-1.9378789-8.9796257.3058317-6.2903443,1.2375885-2.4390796.1200738.9117815-.2143701-.1448327,1.0718061,1.6161909,1.5577706,1.2014468,3.1868946,1.0006742.745999-.0790157,1.8749852-1.323248,1.2433464-1.0171063,2.6380806-2.2053985,4.0043798-1.4680807,1.5948868-.1547096,1.5034251-.8492421.8546013-.9775984.5516486-1.5602952,1.3061958-2.021058.328686-5.2502065-.5573622-2.1363041-1.0060777-3.9697439-.0342815-1.53062,2.635246.9446899,3.1611613.2139714,3.023991-1.7050836,2.1522489-2.5707578,1.6091929-1.3628001,2.3980659-.8130118.4201476-1.3989419,6.8539958-2.6037105.9746752-.7999015.8231545-1.4186958,3.6156347-6.5174702,1.2404232-4.7432479.8231988-7.0474604.2829774-4.7202607-.7202657-13.0447731-1.4719783-9.1475341-2.5352361-4.9111563-.4944685-1.9058562.7917076-.5036368.460187-1.4417273.9489419.227126.3029527-.7504724.6745128-.2008169.0199754.4970374,1.2776722.8097342.7402854,1.4450492,3.2268896,2.7090353.0914616.4970374.4630659.05594.2314665-.3620817-.37156-.5661762.3743947-.1777411.6916535.7867027,1.1061318-.1382333-1.1804527-.5661762.5345079-.516747-.808937-.5036368.6059941-.4838829.1629035-.8722736-.5259153-3.2027952.8631496-1.5833267.0971752,1.9059005.6030708,1.5734055,2.8524507,4.5029674.0257776.7406397-1.1318208-.0888927-.8174409.6813779-.4545177-.1118799-.614498.9380905-1.1804527-.717564-1.5691535.7471949-.8517667,1.6688533.2115354,2.0112253,1.4634301,2.4621554,3.0639861,2.6827263,2.037933.5365453.9346358-.0033219.8603149-1.0434153.3229724-1.2508316-.3315649-.8130561.6087401-.7109645.6030708-5.8657232-.4772834-1.6787303,1.7149606-3.5253247-.2458169-.2765108.4029626-.0230315.4459252-.9578887-.1000984-2.9789467-.9946063-1.3364025.8717421-1.7050836.4630216-.7274409-.085748-2.1626131.6345177-.9710433-.5087303-2.5905117-.7459547-.0756939.0543012-.3291732-1.1718602.3258514-1.074685-1.2672637-.2429823.2238041-2.4466535-5.7834299-.5687893-.3258957.3887008.4542962-2.5952066.4476525-2.2236909-.9019488-1.5205659.9249803-1.0461171,6.6161956.5631201,1.8663926.8917618,1.333125-.1229528.5464222-1.7892371,1.2837401-3.4184054.0658169-1.623499.2567569-1.5662745-.4378199-1.489119.1218012-1.3547834-.6385925-.8689074.6287155-.1086024-.9578445-.5401771.0197539-.391624-.490438-.6687992.7833809-.6773917,2.5345718.2143701,1.6886072.4087647.842687.7517126-.5102362-.6459449-.2830659.1829232-.2205266.988937.2765108.328686.5958071-.2458169.2106496-2.2065501.5332234-4.9161169-2.1197834-6.579611.3028199-.0657283.0164764-.4887106.227126-1.0289763.8262106-.8888828,1.7215157-.8289124,3.4430757-.068563,2.2942913.7602608,3.788681.9489419,1.2771407,2.1865747.8097342-2.9354084-.8657185-4.5302508-3.3870914-4.1387154-2.1593356-2.6809989-.4312205-.3572982.4476525-1.4090846.2633563-.4201476-.7702263,1.2719143-.490438-.0228543-1.0072736.5401771-.0855709.1229085-.7307185-.8660285-1.0467372-1.9292863.0756939-.0743209-.3949901,1.8549655-.6978543.1200738-.5562549,1.0431939-.1974951.5345079-.7307628.5287943-1.1619832-1.1060876-.2402805,1.5119734-.470684.6259252-2.9855462-.3629675-1.2310777.0028346-.2600344-.788873-1.1587057-1.2490157-.69781-.5945226-.0921703-.8631939.388435-.2629577.671501-.5773376-.0592618-.4802067-.5958071.6259252-.8986269-.4716142-1.5668503-.5202018-.5858858-1.4262696-.5299458-1.3547834.2238484-.3372785.5101919-.328686-.470684-.0342815-.0065551.7745669,1.6853297-.2172047.217249-.4973474.0527067.1143159-.5793307-.660251-.7274409-.9232086-.3192962-.9060679.2567569-.8945964,1.7149606.3315207.8590748-2.5494979-.88875-.6202116.4871604-.5802608-.2336811,1.094749-.3258514.768809-1.8597932-.4315748-.707687-3.3012105-.5036368-.5430118.7406397.0628494-.8953051.8974754-.217249.6259695-1.6063582-.5316289-.786747-1.0889911.0987697-.6716781-.398312.4372884-.3851132.1057234-.9315354-.4172687-.6714567-2.7896013-.7471949-1.5634399.3060974-.9232086-.5332234.6202116-.4707283,1.0660925.0756939.6173769-.7439173.0228543-.9085039-.7002903-.6451476.6402313-.6122392.1257431-1.6787303-.5316289-.878873-1.4319389-.6879773-.0571801-.6023622-1.7606692-.6155167-2.7553198.1184793-.0285679-.2764665,2.8210481-.1250787.3115453-.9282135-.4430462.05594-.0028789-.3390502.4687795.1645866-.8631939-.9578887.5687893-.7109645,1.1346998-.1975394.3429921-1.5437745-.2543651-.1547096,1.8835777-2.7254674.1228642-1.7742224-1.274749-.0197096.0400394-.9809202-.8975197-.0461073-.5030167,1.3496013-1.1575541,1.3133267-2.6895914.9249803-.2800984-1.2936171.5516486.398312,2.6266977-.5398228.4630216-2.2185974-.9660826.0790157-.2572441.4575295-.8088927-.1349557,1.1090108-1.1356299.0914616-1.4384498-.9917716-.6681791-.5173228,1.323248-.7116732-1.2080462-.0914616-1.1619389-.5745029-.2139714-.6831053,1.1356299-.200064,2.1198277.2229626.9907529.4830413.0164764.5287943,1.4088631-.8202756-.7011319-.128622.5365453.2372244.5924852-.3487057.3489272-.7545472,1.1487844-.4916338,2.3107676.5630315.3291732.2343898,1.0533366-.7145078,2.1231052-.0571801,2.0046259.8488878.8525639-.503061.0756939-1.1004183,1.7807775-.2800984,2.3601082.4916338.5694537.9832234.1020472-.0743209.7603937.3429921-.2172933-.8974754,1.267308-.374439,2.6234202-.5945226.227126-.3429921,1.4088631-.1171506.5167913.414434.4838829h.6631299l.2772195-.5530216.3601329,1.1750935,2.2179773-1.0434153-.6888189,1.0369045.4001279.8261663.7860384.470684,1.4776919-.1316339-1.4976673,1.0763681-.4001279-.5036368-.6888632.6122392-.174375,2.9131298.6259695,2.4358464,1.8521308.5266683,1.9578543-.3258514,1.1404133,1.1257529-.4058858,1.0895669.3087106.5233464.6230905-.3521604.7803248-1.8235629,2.409493-1.5075885.3515403,5.1613138,1.6520226,4.394365,1.2547736,1.0993996,2.4723424-1.2014911,2.7924802-2.0506889.7517126.161309,1.5005905-.4410974,1.0346456.0527067.3173031.8623966-.0657283,2.0342568-.8374606-.6188386-.3830315.2666338-1.5777017,2.192244.2972392,1.4088188-.7316929.8360876.088627,1.5602509-.6831496.8130118-2.1607972,7.8176867-.4716142-.161309.0857037-.6912106.7974655-2.3700294.545935-.2995423.8002559-4.1178542-.8517224-.5101919.2057776-.7241634-1.1289862-1.4911564-3.1125737-.7505167-1.8721505.0625394-2.9982578,1.8433169-1.6491879,2.2909694-.5373425,2.1198277-.8860482.7801033-1.0232628,2.5839566-3.1439763,8.5122192-.5144882,3.5484005.1142716,5.5233955.9575344,8.8117615-.1086024,5.283115,1.3576624,6.0303098-.1343356,1.3100935-.8260334.5990403-.8688632-.1415551,1.4147982-1.096122-.2286319-1.1718602-4.5874309-2.2909694,2.6867125.7011319,1.206186-1.6161909-.5973573-4.7564467-.7116732-1.9091338-1.0575443-1.3660334.2743848-1.8827804-.5687893-1.0336269.2943602-.4015896-.1114813-3.4199999-1.7720964-1.7314369-1.3862303-.273189-1.6949409.207372-1.3519488.8591634-1.0375246,1.7643011.1372146.8657185-.5659547.7834252-.9574901,5.3324998-.5830512,5.2600392.1629035,3.1501328,1.4319389,6.9025834.9232086,2.4852312,1.3290501,1.6161909-2.2036712.6649016-4.1072686-.5661762-.9603691-.5068701-.9517765.3192962-3.0268257,1.8959793-.7602608.9315354-1.3262155,2.1988434-.3429478,1.7643011-.0085925,2.6398966.0228543,2.4588779,1.4691436,6.4845618,2.6867125,5.8920766,1.1060876,1.2047244.9089025.2962648-2.1722243,1.0763681-8.2544879,1.9420865-1.4634301.1546653-1.3347637,1.7511466-3.6270619.3752362-1.6749212.9414124-1.1146801,1.612869-1.1261072,3.3443503-.3772736,2.6398966.0485876,2.817682.8460531,3.5385235.6431102,1.2014468,1.2118553.2699557-4.9647045.4114665-4.4359546-.661624-1.4548375.4410531-1.7663828,1.3891092-1.2175689-.424621.3401132.6287155-.7631397-.3094193-.4172687.7439173-1.0889911-.4147441-.128622-.5200246-2.2665649-.6122834-2.2236466,1.5010334-1.5720324,2.057244-.7459547.4279429-1.048996,2.0276574-1.4434104,1.0302608.260123.5464222-.5202018-.5694537.2886909-1.8729478-1.5662745-1.8926574.5601968-.4509744-.3029527-.2106496-.6402756.4410974.1143159,1.2672637-.8031791.7176082.4087647,1.1389074-1.3862746-1.0566141-2.8610432-.5924852-1.291934,1.2442322.1543553.8755954.9317569-.0592618-.1601132.4806053-2.6809989.8986269-1.2176131,1.6787303-.2229626,2.0177804,1.1089665.651747-1.7063238.3258514-1.4948326.9512893-1.1747391,3.3113975-1.7292224,10.5135675-.8060138,4.7432479.6831053,5.4509791-.2143701,1.3923868.3658464.0526181-.0114272,1.9881495-1.4405757,7.1099554-.9232086,2.646496-.9089025-.227126-1.8292322-1.7215157.0457087-1.1027214.3572982-.1020472.5601968.5694537.0085925-.5826525.7288582-.4147441-.3658464-.4707283.1914714-.6187943-.6059498-.615561.6488238-.822933,1.6063139.4147441-1.0489517-1.3627116-1.7149163-4.7399703.1886368-1.1356299,1.3662106-1.4779576-.7917076-.3489272.2743848-.5398228.2086122.4641289.6488238-.273189-.3201378-1.1652165-.5915994.3752362-.042874-.4015896-3.3012105-1.0006742-1.1318651-.19094-2.020748.7110531-.3115453-.1942175.0257333.7307628.5659104.5036368-1.0832775.217249-.1343356,1.9815501.4430462,2.7189123,1.1575984,1.8334842-.1486417.6583021.8117716.5233907,2.1093306-.69781.5859301-.5595768.8574803-2.4621554.37156-.046063.0371604,3.2586908-.4172687-.2436024.1314567.9414567.6031151.6418701-1.3833513,1.3396801.0657283.3752362-1.1461269.6122392-.4658563,1.1685383,1.2147342.5924852.1514764.6714567-.8174409.6320374-2.8468257.3225738-4.7817813,1.6457775-1.0775196.8130561-4.255866,2.8407135-2.5981298,2.7912843-.0971309,1.9288877.8060138,1.8729478-.4401673.6681791-.0085925.0032776.8003002,1.2376771.2200837,1.2672637-.3858661.1546653-.2315108-.8097342-.4315748,1.0796899-.6230905-.822933-.1143602.3028199-.5916437-.490438,1.4062499,1.7610678-.0314468,2.8604231-.3858661.6122392-.6259252-.9051821-.8146063-.2995866-1.3547834.4838829-.3544193.8262106.7059596,3.1402558,1.6291682,2.3140452.5773819.1086024.0400394-1.3528789-.8031791-.135-.2057776-.4179773.6345177-.7044537,1.1203937-.1679085,2.6038434,2.9131298,2.3837598,1.4186958,2.7553198.8459645,1.4977116.9809202.6345177,1.142185,1.4662647,1.1915698-.0028346.6714567-.0143061,3.5451229,1.7720964,2.1692125.3173031,1.7774999.3458711,1.4154183-.4344537-.5201132-.4315748.6846998-1.1375787-.5464222-.0314468.6221604.045753.3357726,1.2776279.2698671,2.9467912.0527067.5030167,1.9782726-.2743848.5299458-.4687352-.4147441-.1228642.5694094-1.5463434.7439173.1858022.4015896-.0314026.605684-1.4119635,1.974995-.6631299,2.9131298.591688,6.2475145.0743209.3357726.0114272.0164764-1.9807529.4937598-4.055802,2.9328838-3.092554,3.0546406-4.7875392,4.9440648-3.2012007,4.5819831-4.6474457,7.992106-3.6813631,7.8275637-3.0182774,7.5872832-4.7046258,14.1606934-1.0118356,4.1968256-2.3722883,11.2542073-2.0464812,7.5444535-4.5931002,12.6169188-4.3044979,8.3871847-5.130487,11.8400488-2.8153345,5.4081494-3.466993,5.4015943-7.9715548,10.7406492-5.9650687,6.2870667-25.9125581,23.5352649-11.3328244,10.9941728-9.9294091,8.5648816-2.9525491,2.1790452-10.2180557,8.0513678-1.3262155.3324508-1.1804527.4476083-.5716683-.4015453-1.4434104.0527067-.7116732-.543189-1.0517864-.7175197.1314567-.9282578-.7231447-2.1066732.1657825-1.3528346-.6173769-.6484252.2229626-.2699114-8.5831739-.5431004-.9746752-.0658169.3029527-.2403248-.1629478-1.0236614.6773917-.5167913-.7573819-.8394094.1257431-.842687-.5544832-1.3462795.6488238-.6418701.3772736-2.1592913-1.028932-1.3957086.4773277-1.5931594.1486417,1.2574311.6288041.5365453,1.1804527-2.1329822-.3372785-1.6852854.5316289-1.3989862-.4630216-2.3173227.6574163-3.1172243,1.0861122,1.8861023,2.7295865.6090059-1.1861663.1876181.3001181,1.4977559-.9546112-.5365453.1714518.8821948.917495.8557972,1.9178592.3061417,1.1375787-.6056397.085748-.8097342-.814562-1.484557-.8803346.6090059,1.2690354-2.7057578.2372244-2.5642027.8974754-1.1521063-.3001181,1.3462795-.4230266.0855709.8888828.5595768.6916978-2.2910137-.0599705-.2172047.8602706-6.2640352-.1886368-3.1205019-.6145423-2.165935-.874621-2.6761712-2.9039615-14.3877751,4.1501426-12.6070862.4573081-.3291732.042874-.6122834.5973573-2.7880511.9918159-2.0178247.4944685-.0164764-.4287401.8195669.4973031,1.3989862-.7288139-1.2179232-.8174409,1.9815944-.2343898,2.1560137-.1600246.7208858.4115994.3291732.7917076.5003149.5973573-.0888484,1.5548474-1.4285728.6031151-1.7314369.920374-.7208858,2.3551476-2.8669782,2.3123178-4.5721061,1.3805167-1.7051279.3858661.2600787-.1314567,1.0270275-.5116092-.2106496-.4230266,1.9683956,1.2862204,1.6228346,3.8271258,1.8926574,1.6320472.0230315.8174409-1.2179232,1.8092568-3.834744,3.5384792-3.6175392,3.7728247-6.9684446.6974114-1.1948917.1943504-1.5042224-.9232086-6.1290352.3972933.3786023.242938-1.0830118-.4802067-2.4819094.9546555-4.8025097,1.4805708-4.0520373,1.6091929-1.4976673,1.689183,1.3002165.174375.687933-.4744488-.6681791-.2829774-.0295866.0571801.4245768,1.4948326,1.6787303,1.6606151,1.1553838,1.3205019.1745079,1.4776919-1.3067716,1.689183-2.6365747,5.2105215-5.4772882.4287401-1.3166486.1972293,1.0138287-.8574803,1.0302608-.6974114,1.8927017.0200197,2.1592913,1.6377608,2.692559,2.6009645,2.9756692,2.6781643,2.6037105,1.0146259.3489272,2.806742,2.9690255,3.7242814,2.2020767,3.0754133.5826082,3.0125639-.9282578,3.4041436-2.5016633,2.2408316-2.7650196,4.8075146-8.4530017,1.5491338-3.8709743,7.2198423-14.6642859.9489419-2.1264271,1.0089567-4.6840303,1.2776279-4.6510776.374439-1.9454084-.7260236-4.1474408-.1914714-.4904823-3.5899457-8.4595568-4.7246012-8.4891877-1.8178493-2.5378936-.3087106-1.0072293.2972835-2.2679379,1.0432824-4.1013778,2.6638139-7.1099997,2.938243-5.283115-.1857579-.8492421.8174409-1.323248-.4287401.4312205-3.4412597.8986269-1.0346899.5496998-.4201476.707687-2.2494241-.6583464-.3944144,1.1158759-1.5090944-.0131988-.6631299.6287155-.6945325-.4937598-1.4490797-.4806053.3315207.7439173-1.2518946.2402805.3572982.2007726-.260123.2336811,1.0775196-.3060974-.3658464.8821506.545935-.217249-.0971752.6287155,1.0604232.2797884-.6002362,1.2903395.0742766-.8228887-.4344537-.2205709-.3858661.3555266-1.1632677.0164764-1.2232824.651747-.0143061.3949901-1.2204478.3785138.5344636.1152461-.7545472.7405954,1.5348277-.9446899-.2972835.2831102.485876.2337254-.0857037.5595768.5487697-.7208415,1.2633661.3225738.657372-1.0006742.7717323.6418701.0543012.671501-1.1747391,1.0796456-.7231447-.9677657-.7745669-.1908957-2.0722145,2.3996161-.9260433,4.3713335-1.2805068.2764665-.1657825.6748228,1.0118356.4278986-.8003002.8854724-1.24906,2.9262843.0257333.7603937-.4058858-.0888927-.305876.4476968,1.5120177,1.4779576-1.6263336-1.02375-.5716683.7669488.0342815,1.0434596,1.1890009,1.5602066,1.0003641-.1481102,1.1061318-.8953494-.4058858.9677657-1.0775639.8394094,1.5548917,2.4490009.4773277-.7834252,1.1289862.5332677.7574262-.5266683-.0714419-.6253937.5545275.0065551-.1800886-.7471949.4658563-.3291732-1.4319389-.7636712,1.6577362.5003592-.3172588,1.3857431.5573622-.4575295,1.0432824.1152461-.6888632-.2337254-.1514764-.4608071,3.023991,1.4055413.0228543,1.6490993-2.4609153,3.1007479-4.584552,4.0257282-5.2162793,1.6688533-4.1986859.3653592-3.7471357.9249803-2.8696357,1.1718159-1.5520127,1.4549261-.4830413.615561-.8088927.4015896-1.3033612,1.3660334-.4716142,1.6063139-.8660728,7.0737694-.5573179,1.8268405-.8860482,1.1850147-1.1318651.6484695-3.5469831.2831102-1.6692076.8196112-.7259793.671501-.5487697,2.3798621-.2543651,1.2837401-2.4952411-1.8334399-2.0721702-.5464222-1.9178592.2600344-2.0893552.9578445-.8403395.9841978,10.7868894,10.1645961-.0028346.0131988-10.7782968-10.1613628-.0543012.0658612-.7202657-.1020472-.4716142-1.333125-3.198366-.7768258-2.6695718-1.4910679-.745999-2.7024802-2.2265698.161309-.9375147,1.7445915-.7917076.3291732-.9260433-.6978543-.7974212-1.39562-1.7206741-1.0072736-1.2690354-1.3166929-.414434-.1086024-1.3061958.9578887-.6517027-.19094-1.5262795-2.3732627-.8374606.1086024-1.0889911,1.8005314-2.2179773-1.3265255-.7374508-.9216584-.0742766-.878873-.6974114-.2929429-.2257972.6912106-.6174212.1645866-1.0175049-3.2225491-1.6806348-2.0539665.1028888-.786747-.7231004-1.5372194.131501-.5002707-.4316191-.7110531.3343996-.9084596-.7974212-.5990846-.920374.5069586-2.3865944-.4509744-1.3062401.8261663-.5859301-.8657185-.5859301.878873-1.8864123-1.1718159.2629577-.7044537-1.5977214-.0756939-.9946948-1.5108661-1.6720423-.8262106-.5259153-1.9223326-.9775098-.3851132-1.6291682-1.7445915.1486417-1.9223326-.4916338-.7505167-2.9582184-1.4186958.1428839-1.2442765,1.0861565-2.8703001-1.0890354-1.6326673-.0543012-1.4943897-1.2662007-.5793307.0743209-.868996.8631939.0921703.4458809-1.928932-1.4348622-1.0533366.0114715-1.0994439-.8974754-.490438-1.2576082-1.8466387.0543012-2.6300196-.9146161-2.1593356-.8003445-.7044094-.1457628-1.1191535-1.0032431.3390059-.7459547-.970999.8974754-1.1751378-1.074685-.0822933.0143061-1.303494-1.1289862-.5891634.6487795-2.2876918-1.8092568-.2205266.831747-.6715453-.0199754-1.0533366-1.8292765-2.5937893.6574163-1.2640305-.1972293-.6484695.7945866.625438.7117175-.9414567-1.9779182-.6945325-.1400492-1.6096358-.9260433.0592618-.2686713-.3258514-.831747.3555266-.414434-.6748228-1.2833415-.4509301-.8374606.2468799-.0171407-.4608514-1.5834153.2436024-1.0603789-1.333125-1.1375787.0658169-.7974212-.5529773-.1229085-1.5832824-.8546013-.5101919.5230807-.536501-.8603149-.5167913-.6688435.0625394.1000541-1.9025787-.2715502-.4180659.4087205-1.1191535-.4658563-.3324951-.9803445-.2896653-.1257874-.3719586-.5487697.6978543-2.1436564-.5233907-.6145423-1.5174212-1.3233366-.8755954-.3544636-.9019045-2.0035629-.3620817-1.4405314-.9381348-.631683.2699114-.9289222-.3061417-1.2290403-1.6952066.1372146-.6912106.3515846.1876181.3029527-.8261663.2915256.05594-.1171506-.915059-.6202559-.0625394-.1000541-.5431004-3.5413138-.4147441-.3686811-.7109645-.9117815-.217249.4773277-.227126-.588809-.0658169.1257874-.4279429-.703125.0823376-.2944045-.5530216-.6373523.2040945.0771112-.3818356-.3972933.1974951-.5030167-.0625394-.545935.8591191-.9146161.1908957-.1915157.7570718-1.2090206,1.3265255-.6716781-.4641289-1.5319931,1.9980265-.3001181-.5958071-.9946506-.3554823.0914616-.3818356-.7746112-.6615797.2572441-.7044537-.4830413-.5826082-3.2583365-1.6590206-.2086565-1.3133267-1.7835236-1.3759547-30.8458158-26.4155305.2801206-1.4186958-.2772638-1.2607086-.5773597-.2797884-.7374065-1.8400393,1.0146702-.651747-.0200197-.6715453.485876.2304478-.0200197-.424621-1.1518627-1.3265698-.5516265.4213435-.5316289-2.6958808-.700246-.0625394-1.3033612-1.2047244.2801206-.9546112-2.4037573-4.6280461-.6831274-.5595768-.4115994.1448327.0371604-.470684-.8603149-.5464222-1.5405634-.3785581-.6402313-.7274409-.4172908.2633563-.2829774-.868996-1.5291141-.6781004-.5602411-1.8268405-.7945866-.8196555.1286442-.3818356-8.757571-.3291732-1.417655-1.1191535-1.163312.0065551-.2486516-.9085039-.4373105-.2106496-.2029429.5035925-1.6091707-.0954035-.5802165-1.1356299-3.7099531-.5069144-3.0554379,1.1750935-1.6291904-.7109645-.7202657.7176082-1.6091707.1645866-.9717962.6781004-2.1579625-2.8473129-.460187-.0395079.3887451-1.1816929-2.1236589-1.2014468-.9689394-1.7643011.3258735-.263312-.788873-.7505167-.8203199.1744636.1858022.615561-.7002682.3291732-1.7092248-.6287155-1.1947145.7471949-.8574581-.5299458.3543971-1.2639862.3515846-.0954921-.3086885-.6056397.1886368-.9249803-2.6067223-.6056397-.0371604-1.1487844.7803248-.3225738-.0371604-.8920718-.6516806-1.0401378-2.0035851-.7340403-.4315969-.6846555.2915477-1.0006742-.231533-.83281-1.4005142-.9545669.0914838-.6747785-.603093-.0230315-.0657062-.9217027-.1229306-.7208858-.4830192-.2797884-.1371924.3686811-1.231875-.3489272-1.2233267.3192962-.4887549.7109645.5058957.3719586-.4344316.6287155.3229724.6583464-1.1032751,2.2745373-.4687574-.1382333-.5459129.7932578-.7374286.1908957.2601009.8130561-.4430241.3028199.4658784.8723179-1.7863803.0328642-.6945546-.9216141-2.2608513-1.1487844-.6545374-.8854724-1.3690895.6155167-.0371604-.9545669-.3572761-.2863435-1.1147022-.1316781-1.6463311-.9940748-.4544513-.9381348-.7116953.036186-.2829552-.5529773.3401353-.227126-.4687352-.651747-.1972072-.5267126-1.1118454.1284006-.3915797-.6253937-5.3877311-.83281-.5058957.2699114-.0257333-.8360876-.6545374-.1678642-.2057997-.4937598.0714641-3.8512203-.6345177-.5925295.4087205-.6319931-1.346213-1.3660334-2.0779281-.0790157-.3144021-1.0203838,1.5491559-1.0369045-.3887229-.8130118-1.6949187-.7735039.057158-.5299458.5544832-.3324951-.5916437-.7603494-.0257333-.7768258-1.5177091-.3225738-.6716781.7603937-.7288361-.2797884-.242938-1.1092765-.5487697.2600344-.8517446-.6221161-.4287401.0987254.1371924-1.6556988.7631397-.3917126.1229085-.7505167-.4201476-.5595768-.0914616-.8097342.6288041-1.3100492-1.2004503-.3654035-1.1061318-2.0737204-.2743848.2962648-.7745669-.3258514.7116953-1.2705856.2886909-2.0375344-.1514764-.3060974-.846031.3159744-1.0118134-.7010876-.4830413-1.8301623-.6516806.5332234-.5716461-.3192962-1.5177091.9217027-.5116092-.1645866-.1914936-1.0138287-.8688853-.5332677-.9946506.2600344-.0314468-.5760088-1.2719143-.8558415.1314788-1.504311.4544513.0592618.271528-.7142864.4687574-.1283563-.3544193-.5628543-.5116314-.9776427-.5544832-.036186-.3201156-1.5273425-1.1461491.0493405-.5058957-1.0829675-2.2094069.3028642-.8717642-.7406397-.3401353-1.069813.3544193-1.2573868-.3086885-.3818356-1.5405856-.0230315-.5030389-1.3199704-.1343356-1.4483267-1.5662967-.4410531-.7745669.5101919-.1171949-.6188386-1.2661786-.8064567-.8603149-2.0638434-.9860802-.5562992.1028888-1.6787303-.4773277-1.142185-1.060401-.2699557-.0457308-1.1224311-.6945546.2567126-.228654.6484695-1.8178272,1.0763681-.6745349-.1744636-.242938-.6024065-.8631717-.1645866-.7745669.7768258-.9546333-.1974951-.9117593.9875196.1629257.4048671-.5802165.8294882-.8174409-.2567126-.5373425,1.1092765,1.0775418,1.2541092-.3029749.1843405.18578,1.4186958,1.2147342,1.8137302-.6516806,1.3791879-.7802805.1415551-.7659965,1.0237057.5001821,1.2837401-.3315428.5892519-.2886909-.2008169-.1829232.8623966-1.0775418.2402805-1.2661786-.4146998-.0285901-.9151033-.6373745-.1744636-.946063,1.4154183-.6116634-.0658612-.6716781-1.3923425-.8174409-.0329528.3029749.3357726-.3601329.6846555.0285901,1.7675787-.7345718.9710433.328686.6385925-1.906432.0131988.0914616.6813779-.8631717,1.5800049-2.0607652-.1415551.7631397,1.5174212-1.3948006.6352706-2.752463.1777411-.788873-.1185236.1514764.7373622-1.8664148,2.2679379.0343036.4048671-1.8921481-.207372-.7945866.3456053-1.6320472,3.2027952-.7345497.1020472-.4630216.5562992-.8860482-.0033219-.8346038-1.2837401-1.2147342,1.0368602-.8660285-.161309-.7202657.3555266-.7831373,1.2409547-2.6610014-1.1882923-2.0407676-.4278986-.9003322.434498-.6173769.9183809-1.8406815-.434498.0800234-1.2541092-1.0060888-2.7156347.2743848-5.697859.960358-2.0606102-.3572761-.6550246.4687463-.5826525-.4287291-.3917126-.2915367-1.8762253.3344107-.7439173-.5573511-.4048671,1.003232-2.7682971-.4573081-.9380905.1514874-2.2679379,1.8892802-3.4562745.0514444-.934813-.4201587-1.3956643-1.0518196-.8196555-.5344857-2.2580609-.803157-.3258514.0628826-.83281.4515945-.3324951-1.3233476-1.0862007.3144021-.8756397-.200075-.7735039-1.1518627-.1481545-.4716031-1.0664911-.6173769-.2106496-.5916548.3324951-1.3719463-.5102362-.3401242-.7735039.2400923-1.6787745-.5516375-.6747785-.5373425-.1513878-1.4519697,1.3890649-.6688213-.4048671-1.3576513-2.5411269-.4001501-.0033219-1.3576513.7867027-.4458809-.2139272-.3629897-.7702263.4315969-1.267308-.2257972-.4674065-.6773917-.7735482-1.374792-.5628543.0943184-1.5010334,1.1861552-.9677657-.4173019-.5990846-1.0718282.0131988-1.5205659-1.9354871-.3515625-1.3068159.4344427-1.58656-1.5119955-.8986269-.2800984-.822933,1.3633649-1.3133267-2.2322612-1.2903395-2.909664.4312205-.5230585-1.1652165-1.0918368-.786747-.028579-.4772834,1.1661466-.2764665-.18578-.8262106-1.2690465-.5661762-.9346358.1020472-.9632148,1.6392667-.4201587-.2699114-.2686713-.4213435.1086134-1.4483267.5001821-.3785581-.2086454-.7274409-.8374606-.7571161-1.0518196.8459645-.4258723-.0724163.2115022-.9085039-1.0718282-1.6392667-.0342926-1.0269832.2972502-.4114665-.5316289-1.0006299-.4401673.6780561-1.1775848.605684-2.2922871-.1382776-.7717212-.7274409.1457739-1.4351722-1.346213-.8130118-.1486196-.9578887-.5144771-.516747-.9403494-.0197539.3829983.8657185-.6259473.3423277-1.8464062-.5201132-.5516375-.6418701.5316289-.1250787-.2743848-.5628543-.860326-.1678642-.18578-1.7281151-.414434.4015896-.5516375-.7439173-.1629146-1.003996.7602829-.1908957.3315539-1.1093208-1.3319291-.5990846-.631672-1.6227903-.9803666.4641289-1.3890871-.3324951-1.4919869-1.1652165.8660396-.8854724-.6802596-1.2113238-1.1661466-2.4358464-1.7092138.8031791-.4544513.9414124h-.6831164l-.7116953-1.4088188-1.003232-.5859301.1686282-1.4219734-.2800984-.3258514-1.4605511-1.096122-2.5752423.0822933.1543442-.9183809-.8117273-1.0895226,1.5462881-1.1027214-.3944365-2.3633857-.5745029-.3818356-1.1032751.9907529-1.892137-1.9782726-.1629146-1.6886072-2.063633.8064567-.8517446-.2436024-.7402743.8130118-.6202337.0625394-.2543762-.8064567,1.4205339-1.3759104-.7402743-2.4983857-1.4719783.6319931-1.2347428-1.1290305.1915047-.4114665.7402743.0625394.5687893-.8722736-1.7949618-1.6030807-.7202657-1.5042667-1.935011-.1579872-.0657394-.3423277,2.3265796-1.1816929-.0743098-.4015453-.5802165.3587598-.7288472-.7603494-.4458809-.3554823-1.6434743.2929429-.3515625-.6748228-1.5348609,1.2343553-1.1661466-1.974995.1514874-1.5207431-1.3262044.4871604-1.1118454-.9973523-3.0582836-1.3002165-1.8721284.3324951-.7688644-1.2343553.6488127-2.3568306-.2029318-.7965797-2.1751033-.75375-.5830733-1.9881938-1.2176021.3028642-.5030499-1.1948474-1.2776168-.6024065-2.0436244-.3818356-1.7949563.5760531-.2258028-.8394094-1.1575707.0921703-2.0150399,3.1468109-.057169-.671501-.9717907.3324508.2601009-1.0302608-.6316664-.7176082-1.497706-.3028642-2.5552392.9183809-2.1293669-.4410531-.6402368-1.1356299-.9517876-.2765108-3.2469259.2238041-.5459184.470684-.3344107,1.1817372-1.3004822.4114665-1.3033501-.7241634-1.1718657.2304035.1457683-1.1817372.5544943-.1711417-.3772847-.4509744-.5487807.0395079-1.6234657,1.6194684-.5459184,1.369311.1943559.253435.3858606-.2797884-.3829983,1.0664911-.5802165.0888927-.114327-.6451476-2.0178967-.1152461.1229029,1.6030364.9460685-.0954478-.114327,1.0598917-.8603205,1.1224754-1.5834485-.3785581-1.6577638,3.7261416-1.3605081,1.5272982-.2772472,1.1257529-.7774348.4312205-.0514499,1.1521063.3944365.6912106-.322978.424621.5573511.2139714-.3601384.661624,1.117559,1.069813-.5859301,1.0598917-.6773972-.0822933-.0886048.9183366-1.0146647.3028199-1.8006754,1.458248-.8403119,2.6530511-1.5548695.4641289-3.1183094.0559842-.7545638-.8657185.228654-.9677657-.7002626-.961122-1.0346733.8031348.0800289,1.2080462-1.1975935,1.2607086-.4315859-.0131988-1.1289917-1.2179232-1.060401-2.2810924-.9717907-.8196555-.7259876,1.5734055-3.4012702,1.6754527-.6087983-1.5734055-.9517848.1053248-1.7978158,2.2482283-.2572385,1.3759104-.7431339.2139714-1.5005628-.5201132-.9975184.2831102-.208651-1.3792322.7888702-1.303494-1.6291849-.6714567-2.3151497.1744193-1.003232-1.178371-2.4466285.0263533-.4716059.2863435-.8946213,2.2350294-2.5923969-.2139714-2.7553156-1.4779576-.6459559-1.1652165-1.1518585-.6747785.9946575-4.6379231-.7002613-1.303494-4.9389893-2.4028936-2.000749-.2633563-1.4090984.7373622-.0457315-.5925295.8231649-1.4779133,5.2648254.0954921,3.9186082-1.5866043,6.8739989-4.8584496,2.1436592-2.0606102,1.5977408-4.1441632,1.6749129-2.3568306,2.5095112-2.5707578,6.34237-3.3673818,1.806389-3.7557725.0021121.0131102ZM459.7882922,704.7066899l-6.7482281-2.1329822.0114715-.0131102,6.7482281,2.1329822-.0114715.0131102ZM455.2723475,700.0127826l.0028789-.0032776.3658464,1.892746-.6402313-.0527067-.0657283-.0230315.703125.0592618-.3658907-1.8729921ZM456.9358415,702.1720738l-1.446245-2.1065846.0028789-.0099213,1.449124,2.1165058h-.0057579ZM468.8574749,689.8020349l-.7460433-.7999015.0057136-.0065551.745999.799813-.0056693.0066437Z"/></g></svg>