<svg width="175" height="54" viewBox="0 0 175 54" fill="none" xmlns="http://www.w3.org/2000/svg">
<path fill-rule="evenodd" clip-rule="evenodd" d="M0.168569 29.956C0.0493374 28.7966 0 27.6906 0 26.7038C0 23.6449 0.472816 19.3978 2.10506 16.1909C3.10825 16.9926 4.37869 17.4736 5.76014 17.4736C8.98762 17.4736 11.6066 14.8588 11.6148 11.6313V21.7537C6.33574 21.8482 1.86249 25.2402 0.168569 29.956ZM11.6148 41.7929C10.7021 41.7929 9.78524 41.7929 8.8725 41.7929C3.28916 41.7929 1.06075 36.2465 0.316581 31.1442C1.62813 26.0912 6.17539 22.3457 11.6148 22.247V41.7929ZM29.956 53.235C28.7966 53.3542 27.6906 53.4036 26.7038 53.4036C23.6449 53.4036 19.3978 52.9308 16.1909 51.2985C16.9926 50.2953 17.4736 49.0249 17.4736 47.6434C17.4736 44.4077 14.8505 41.7887 11.6189 41.7887V22.2429C11.693 22.2429 11.767 22.2429 11.8451 22.2429V31.6581H21.7537V41.5667C21.7537 46.9445 25.1744 51.5205 29.9601 53.2391L29.956 53.235ZM53.235 23.4517C53.3542 24.6111 53.4036 25.7171 53.4036 26.7038C53.4036 29.7175 52.9472 33.8824 51.3684 37.077C50.357 36.2383 49.0578 35.7367 47.6393 35.7367C44.4077 35.7367 41.7846 38.3598 41.7846 41.5914C41.7846 41.6613 41.7846 41.7271 41.7846 41.7929C41.7846 42.7056 41.7846 43.6224 41.7846 44.5352C41.7846 50.1185 36.2383 52.3469 31.136 53.0911C26.0172 51.759 22.2347 47.1048 22.2347 41.5667H31.6499V31.6581H41.5585C46.9363 31.6581 51.5123 28.2374 53.2309 23.4517H53.235ZM23.4517 0.168569C24.6111 0.0493374 25.7171 0 26.7038 0C29.7628 0 34.0099 0.472816 37.2168 2.10506C36.4151 3.10825 35.934 4.37869 35.934 5.76014C35.934 8.99173 38.5571 11.6148 41.7887 11.6148H44.5311C50.1144 11.6148 52.3428 17.1612 53.087 22.2635C51.7549 27.3822 47.1007 31.1648 41.5626 31.1648V21.7496H31.654V11.841C31.654 6.46319 28.2333 1.88715 23.4476 0.168569H23.4517ZM11.6148 11.6148C11.6148 10.7021 11.6148 9.78524 11.6148 8.8725C11.6148 3.28916 17.1612 1.06075 22.2635 0.316581C27.3822 1.64869 31.1648 6.30285 31.1648 11.841H21.7496V21.7496H11.841C11.767 21.7496 11.6888 21.7496 11.6148 21.7496V11.6107V11.6148Z" fill="white"/>
<path fill-rule="evenodd" clip-rule="evenodd" d="M47.6434 36.6331C50.3776 36.6331 52.5977 38.8532 52.5977 41.5874C52.5977 44.3215 50.3776 46.5416 47.6434 46.5416C44.9093 46.5416 42.6891 44.3256 42.6891 41.5874C42.6891 38.8491 44.9093 36.6331 47.6434 36.6331Z" fill="white"/>
<path fill-rule="evenodd" clip-rule="evenodd" d="M41.7929 0.805664C44.527 0.805664 46.7471 3.02585 46.7471 5.75996C46.7471 8.49407 44.527 10.7142 41.7929 10.7142C39.0587 10.7142 36.8386 8.49407 36.8386 5.75996C36.8386 3.02585 39.0546 0.805664 41.7929 0.805664Z" fill="white"/>
<path fill-rule="evenodd" clip-rule="evenodd" d="M5.7602 6.6604C8.49431 6.6604 10.7145 8.88058 10.7145 11.6147C10.7145 14.3488 8.49431 16.569 5.7602 16.569C3.02609 16.569 0.805908 14.3529 0.805908 11.6147C0.805908 8.87647 3.02609 6.6604 5.7602 6.6604Z" fill="white"/>
<path fill-rule="evenodd" clip-rule="evenodd" d="M11.6149 42.6934C14.349 42.6934 16.5692 44.9135 16.5692 47.6477C16.5692 50.3818 14.349 52.6019 11.6149 52.6019C8.88076 52.6019 6.66058 50.3818 6.66058 47.6477C6.66058 44.9135 8.88076 42.6934 11.6149 42.6934Z" fill="white"/>
<path d="M174.671 47.7174L166.041 23.941C165.687 22.9624 165.169 22.7075 164.096 22.7075H159.841C158.768 22.7075 158.283 22.946 157.896 24.015L149.303 47.7133C148.941 48.7165 149.155 49.2469 150.306 49.2469H154.233C156.099 49.2469 156.589 48.8358 156.963 47.6763L157.822 44.9833H165.889L166.748 47.6763C167.11 48.807 167.607 49.2469 169.552 49.2469H173.581C174.704 49.2469 175.041 48.7248 174.667 47.7133M151.828 22.7075H133.322C132.138 22.7075 131.751 23.1269 131.751 24.2781V27.6413C131.751 28.8295 132.126 29.2488 133.322 29.2488H138.893V47.6763C138.893 48.8234 139.267 49.2469 140.464 49.2469H144.686C145.882 49.2469 146.294 48.8358 146.294 47.6763V29.2488H151.828C153.024 29.2488 153.435 28.8377 153.435 27.6413V24.2781C153.435 23.1187 153.024 22.7075 151.828 22.7075ZM108.781 30.5193C108.781 37.7719 114.915 38.5613 119.285 39.1533C121.748 39.4863 123.66 39.9016 123.66 41.357C123.66 42.9646 122.163 43.4868 119.66 43.4868C117.567 43.4868 116.107 42.8084 115.437 41.505C114.882 40.4237 114.335 40.2839 113.229 40.6828L109.714 41.9532C108.633 42.3438 108.3 42.8947 108.707 44.0089C110.121 47.8901 114.015 49.8019 119.586 49.8019C126.201 49.8019 131.176 46.7759 131.176 41.2789C131.176 34.2155 125.568 33.1424 121.234 32.5709C118.55 32.2173 116.338 31.8966 116.338 30.289C116.338 28.9816 117.349 28.3443 119.89 28.3443C121.608 28.3443 122.936 28.8829 123.664 30.289C124.232 31.3827 124.667 31.5101 125.683 31.0743L129.42 29.4667C130.53 28.9898 130.839 28.4512 130.316 27.374C128.569 23.7888 125.42 22.1401 119.886 22.1401C112.744 22.1401 108.785 25.5814 108.785 30.5152L108.781 30.5193ZM99.3244 32.279V39.6796C99.3244 42.0272 97.8278 43.2689 95.2499 43.2689C92.6721 43.2689 91.1385 42.0354 91.1385 39.6796V32.279C91.1385 29.9231 92.6351 28.6897 95.2499 28.6897C97.8648 28.6897 99.3244 29.9231 99.3244 32.279ZM83.7379 32.6161V39.3465C83.7379 45.8056 87.8493 49.8143 95.2499 49.8143C102.651 49.8143 106.725 45.8138 106.725 39.3465V32.6161C106.725 26.1488 102.614 22.1484 95.2499 22.1484C87.8863 22.1484 83.7379 26.1488 83.7379 32.6161ZM59.2625 32.6161V39.3465C59.2625 45.8056 63.4109 49.8143 70.7786 49.8143C76.5346 49.8143 80.1527 47.4666 81.6945 43.273C82.0892 42.204 81.7932 41.6489 80.6872 41.2542L76.6868 39.8358C75.5684 39.437 75.1039 39.6878 74.668 40.8472C74.0637 42.4466 72.8713 43.2771 70.7786 43.2771C67.8266 43.2771 66.6672 42.0066 66.6672 39.3877V32.5832C66.6672 29.9642 67.8266 28.6938 70.7786 28.6938C72.8713 28.6938 74.0225 29.4338 74.668 31.1236C75.1039 32.2666 75.5479 32.538 76.6868 32.131L80.6872 30.7084C81.8014 30.3137 82.0892 29.7628 81.6945 28.6897C80.1527 24.496 76.5346 22.1484 70.7786 22.1484C63.415 22.1484 59.2625 26.1488 59.2625 32.6161ZM161.872 31.654C162.649 34.1414 163.422 36.6289 164.207 39.1163H159.541C160.318 36.6289 161.095 34.1414 161.872 31.654Z" fill="white"/>
<path d="M173.552 11.1708V15.3192C173.552 17.3585 172.302 18.5549 170 18.5549C167.698 18.5549 166.431 17.3585 166.431 15.3192V11.1708C166.431 9.1315 167.681 7.93506 170 7.93506C172.319 7.93506 173.552 9.1315 173.552 11.1708ZM165.165 11.1708V15.3192C165.165 18.0616 166.851 19.7308 170 19.7308C173.149 19.7308 174.819 18.0616 174.819 15.3192V11.1708C174.819 8.42844 173.133 6.75919 170 6.75919C166.867 6.75919 165.165 8.42844 165.165 11.1708ZM155.306 11.1708V15.3192C155.306 18.0616 157.028 19.7308 160.124 19.7308C162.867 19.7308 164.219 18.6248 164.836 16.6554C164.922 16.4088 164.853 16.3019 164.626 16.2155L164.08 16.0058C163.833 15.9359 163.73 15.9894 163.623 16.2361C163.15 17.7655 162.201 18.5549 160.124 18.5549C157.822 18.5549 156.593 17.3421 156.593 15.3357V11.1502C156.593 9.12738 157.806 7.93506 160.124 7.93506C162.147 7.93506 163.113 8.67512 163.586 10.2046C163.693 10.4513 163.796 10.4842 164.043 10.4143L164.589 10.221C164.836 10.1347 164.89 10.0278 164.799 9.76466C164.182 7.81172 162.813 6.75919 160.124 6.75919C156.979 6.75919 155.306 8.42844 155.306 11.1708ZM152.987 7.35535V19.1346C152.987 19.3978 153.073 19.4841 153.336 19.4841H153.916C154.179 19.4841 154.249 19.3978 154.249 19.1346V7.35535C154.249 7.09222 154.179 7.00177 153.916 7.00177H153.336C153.073 7.00177 152.987 7.08811 152.987 7.35535ZM139.477 7.35535V19.1346C139.477 19.3978 139.563 19.4841 139.826 19.4841H140.406C140.669 19.4841 140.739 19.3978 140.739 19.1346V7.35535C140.739 7.09222 140.669 7.00177 140.406 7.00177H139.826C139.563 7.00177 139.477 7.08811 139.477 7.35535ZM141.129 3.69616L138.28 5.47231C138.103 5.55865 138.103 5.6491 138.264 5.82589L138.42 6.01913C138.506 6.14247 138.63 6.12603 138.823 6.05613L141.935 4.41978C142.145 4.33344 142.145 4.24299 141.989 4.04975L141.726 3.73317C141.549 3.52348 141.339 3.59338 141.129 3.69616ZM132.569 7.00177H131.99C131.727 7.00177 131.64 7.08811 131.64 7.35535V19.1346C131.64 19.3978 131.727 19.4841 131.99 19.4841H138.864C139.111 19.4841 139.197 19.3978 139.197 19.1346V18.6413C139.197 18.3781 139.111 18.2877 138.864 18.2877H132.902V7.35124C132.902 7.08811 132.833 6.99766 132.569 6.99766V7.00177ZM121.407 11.1708V15.3192C121.407 18.0616 123.13 19.7308 126.225 19.7308C128.968 19.7308 130.32 18.6248 130.937 16.6554C131.024 16.4088 130.954 16.3019 130.728 16.2155L130.181 16.0058C129.934 15.9359 129.827 15.9894 129.724 16.2361C129.252 17.7655 128.302 18.5549 126.225 18.5549C123.923 18.5549 122.694 17.3421 122.694 15.3357V11.1502C122.694 9.12738 123.907 7.93506 126.225 7.93506C128.248 7.93506 129.215 8.67512 129.687 10.2046C129.794 10.4513 129.897 10.4842 130.144 10.4143L130.691 10.221C130.937 10.1347 130.991 10.0278 130.9 9.76466C130.283 7.81172 128.914 6.75919 126.225 6.75919C123.08 6.75919 121.407 8.42844 121.407 11.1708ZM115.31 11.1708V15.3192C115.31 17.3585 114.06 18.5549 111.757 18.5549C109.455 18.5549 108.189 17.3585 108.189 15.3192V11.1708C108.189 9.1315 109.438 7.93506 111.757 7.93506C114.076 7.93506 115.31 9.1315 115.31 11.1708ZM106.926 11.1708V15.3192C106.926 18.0616 108.612 19.7308 111.761 19.7308C114.911 19.7308 116.58 18.0616 116.58 15.3192V11.1708C116.58 8.42844 114.894 6.75919 111.761 6.75919C108.628 6.75919 106.926 8.42844 106.926 11.1708ZM104.994 10.6404C104.994 12.1863 104.061 13.0497 102.498 13.0497H98.5596V8.1982H102.498C104.098 8.1982 104.994 9.07805 104.994 10.6404ZM102.622 7.00177H97.6468C97.3837 7.00177 97.2932 7.08811 97.2932 7.35535V19.1346C97.2932 19.3978 97.3796 19.4841 97.6468 19.4841H98.2265C98.4897 19.4841 98.5596 19.3978 98.5596 19.1346V14.2461H100.932C102.322 14.2461 102.901 14.6861 103.444 15.7756L105.15 19.1675C105.274 19.4307 105.413 19.4841 105.837 19.4841H106.417C106.68 19.4841 106.717 19.3279 106.593 19.1346L104.624 15.3028C104.324 14.7231 104.007 14.3366 103.481 14.0899C105.241 13.8103 106.31 12.5974 106.31 10.6445C106.31 8.3421 104.92 7.00588 102.618 7.00588L102.622 7.00177ZM96.6642 7.00177H88.2768C88.0137 7.00177 87.9232 7.08811 87.9232 7.35535V7.84872C87.9232 8.11186 88.0096 8.20231 88.2768 8.20231H91.8291V19.1388C91.8291 19.4019 91.9155 19.4882 92.1786 19.4882H92.7583C93.0214 19.4882 93.1078 19.4019 93.1078 19.1388V8.20231H96.6601C96.9232 8.20231 97.0137 8.11597 97.0137 7.84872V7.35535C97.0137 7.09222 96.9273 7.00177 96.6601 7.00177H96.6642ZM76.9621 7.00177H69.8411C69.578 7.00177 69.4916 7.08811 69.4916 7.35535V19.1346C69.4916 19.3978 69.578 19.4841 69.8411 19.4841H77.1883C77.4349 19.4841 77.5213 19.3978 77.5213 19.1346V18.6413C77.5213 18.3781 77.4349 18.2877 77.1883 18.2877H70.7538V13.7528H76.1686C76.4153 13.7528 76.5016 13.6664 76.5016 13.3992V12.9058C76.5016 12.6427 76.4153 12.5522 76.1686 12.5522H70.7538V8.19409H76.958C77.2047 8.19409 77.291 8.10775 77.291 7.8405V7.34713C77.291 7.084 77.2047 6.99354 76.958 6.99354L76.9621 7.00177ZM86.402 17.1036V7.33891C86.402 7.09222 86.4883 7.00588 86.7556 7.00588H87.3024C87.5655 7.00588 87.656 7.09222 87.656 7.35946V19.1388C87.656 19.4019 87.5697 19.4882 87.3024 19.4882H86.7391C86.5459 19.4882 86.4596 19.4512 86.3691 19.295C84.0708 15.9976 81.7766 12.7002 79.4783 9.39874V19.1346C79.4783 19.3978 79.392 19.4841 79.1453 19.4841H78.5985C78.3354 19.4841 78.249 19.3978 78.249 19.1346V7.35535C78.249 7.09222 78.3354 7.00177 78.5985 7.00177H79.1617C79.3714 7.00177 79.4619 7.07166 79.5318 7.17856C81.8219 10.4883 84.116 13.7939 86.4061 17.1036H86.402ZM150.319 17.1036V7.33891C150.319 7.09222 150.405 7.00588 150.672 7.00588H151.219C151.482 7.00588 151.573 7.09222 151.573 7.35946V19.1388C151.573 19.4019 151.486 19.4882 151.219 19.4882H150.656C150.462 19.4882 150.376 19.4512 150.286 19.295C147.987 15.9976 145.693 12.7002 143.395 9.39874V19.1346C143.395 19.3978 143.309 19.4841 143.062 19.4841H142.515C142.252 19.4841 142.166 19.3978 142.166 19.1346V7.35535C142.166 7.09222 142.252 7.00177 142.515 7.00177H143.078C143.288 7.00177 143.378 7.07166 143.448 7.17856C145.738 10.4883 148.033 13.7939 150.323 17.1036H150.319ZM59.2623 11.1708V15.3192C59.2623 18.0616 60.985 19.7308 64.081 19.7308C66.8233 19.7308 68.176 18.6248 68.7927 16.6554C68.879 16.4088 68.8091 16.3019 68.583 16.2155L68.0362 16.0058C67.7895 15.9359 67.6826 15.9894 67.5798 16.2361C67.107 17.7655 66.1572 18.5549 64.081 18.5549C61.7786 18.5549 60.5492 17.3421 60.5492 15.3357V11.1502C60.5492 9.12738 61.7621 7.93506 64.081 7.93506C66.1038 7.93506 67.07 8.67512 67.5428 10.2046C67.6497 10.4513 67.7525 10.4842 67.9992 10.4143L68.5419 10.221C68.7886 10.1347 68.842 10.0278 68.7516 9.76466C68.1349 7.81172 66.7657 6.75919 64.0769 6.75919C60.9316 6.75919 59.2582 8.42844 59.2582 11.1708H59.2623Z" fill="white"/>
</svg>
