<svg width="175" height="33" viewBox="0 0 175 33" fill="none" xmlns="http://www.w3.org/2000/svg">
<path d="M174.704 19.9323L167.977 1.402C167.702 0.641381 167.299 0.439921 166.464 0.439921H163.147C162.308 0.439921 161.934 0.629046 161.634 1.45956L154.936 19.9323C154.652 20.7135 154.821 21.1246 155.717 21.1246H158.776C160.232 21.1246 160.614 20.8039 160.902 19.8994L161.572 17.8026H167.858L168.528 19.8994C168.808 20.7792 169.199 21.1246 170.712 21.1246H173.853C174.728 21.1246 174.987 20.7176 174.696 19.9323M156.901 0.439921H142.478C141.553 0.439921 141.253 0.768835 141.253 1.66513V4.28824C141.253 5.21331 141.545 5.54223 142.478 5.54223H146.82V19.9035C146.82 20.7998 147.112 21.1287 148.045 21.1287H151.338C152.272 21.1287 152.592 20.808 152.592 19.9035V5.54223H156.905C157.839 5.54223 158.159 5.22153 158.159 4.28824V1.66513C158.159 0.760613 157.839 0.439921 156.905 0.439921H156.901ZM123.352 6.52897C123.352 12.1822 128.133 12.7989 131.538 13.2594C133.454 13.5184 134.946 13.8432 134.946 14.978C134.946 16.232 133.783 16.639 131.83 16.639C130.197 16.639 129.059 16.1086 128.536 15.0931C128.105 14.2503 127.677 14.1434 126.818 14.4517L124.08 15.4426C123.237 15.7468 122.978 16.1744 123.294 17.0461C124.396 20.0721 127.43 21.5604 131.772 21.5604C136.928 21.5604 140.805 19.2005 140.805 14.9163C140.805 9.4111 136.434 8.57236 133.055 8.12833C130.962 7.85286 129.239 7.60206 129.239 6.35218C129.239 5.33254 130.025 4.83917 132.006 4.83917C133.347 4.83917 134.379 5.26265 134.95 6.35218C135.394 7.20325 135.731 7.30604 136.525 6.96479L139.44 5.7108C140.303 5.34077 140.546 4.91729 140.139 4.07855C138.778 1.28277 136.323 0 132.011 0C126.444 0 123.356 2.68066 123.356 6.52486L123.352 6.52897ZM115.984 7.89809V13.6664C115.984 15.496 114.821 16.4622 112.81 16.4622C110.8 16.4622 109.607 15.5001 109.607 13.6664V7.89809C109.607 6.06438 110.771 5.1023 112.81 5.1023C114.849 5.1023 115.984 6.06438 115.984 7.89809ZM103.835 8.16122V13.4074C103.835 18.4398 107.038 21.5645 112.806 21.5645C118.574 21.5645 121.748 18.4481 121.748 13.4074V8.16122C121.748 3.12058 118.546 0.00410919 112.806 0.00410919C107.066 0.00410919 103.835 3.12058 103.835 8.16122ZM84.7577 8.16122V13.4074C84.7577 18.4439 87.9934 21.5645 93.7289 21.5645C98.2145 21.5645 101.035 19.7349 102.235 16.4663C102.544 15.6317 102.309 15.2 101.45 14.8917L98.3337 13.7857C97.4621 13.4773 97.1003 13.6706 96.759 14.571C96.2903 15.8167 95.3611 16.4663 93.7289 16.4663C91.4265 16.4663 90.526 15.4755 90.526 13.4362V8.13244C90.526 6.09316 91.4306 5.1023 93.7289 5.1023C95.3611 5.1023 96.2574 5.6779 96.759 6.99768C97.0961 7.88986 97.4456 8.09955 98.3337 7.78297L101.45 6.67698C102.318 6.36863 102.544 5.93692 102.235 5.1023C101.035 1.8337 98.2145 0.00410919 93.7289 0.00410919C87.9893 0.00410919 84.7577 3.12058 84.7577 8.16122ZM164.729 7.41294C165.338 9.35354 165.938 11.29 166.551 13.2306H162.912C163.517 11.29 164.121 9.35354 164.729 7.41294Z" fill="white"/>
<path d="M80.942 7.34308V14.2174C80.942 17.5929 78.874 19.5787 75.0586 19.5787C71.2431 19.5787 69.1463 17.597 69.1463 14.2174V7.34308C69.1463 3.96347 71.2144 1.98175 75.0586 1.98175C78.9028 1.98175 80.942 3.96347 80.942 7.34308ZM67.0454 7.34308V14.2174C67.0454 18.7564 69.8411 21.5317 75.0586 21.5317C80.276 21.5317 83.043 18.7647 83.043 14.2174V7.34308C83.043 2.79582 80.2472 0.0288086 75.0586 0.0288086C69.8699 0.0288086 67.0454 2.79582 67.0454 7.34308ZM48.0176 20.5696L40.2141 0.818206C40.066 0.439952 39.8605 0.353616 39.4576 0.353616H38.5818C38.1789 0.353616 38.0103 0.448176 37.8541 0.851098L30.0547 20.5737C29.919 20.9232 29.9971 21.1288 30.4288 21.1288H31.2141C31.913 21.1288 32.0775 20.9972 32.2337 20.6025L34.4169 15.0685H43.5279L45.7111 20.6025C45.8673 20.9931 46.0605 21.1288 46.7595 21.1288H47.6023C48.0669 21.1288 48.1574 20.9232 48.0094 20.5737L48.0176 20.5696ZM18.2096 0.439953H17.2475C16.8117 0.439953 16.6637 0.587965 16.6637 1.02378V20.5449C16.6637 20.9807 16.8076 21.1288 17.2475 21.1288H28.6403C29.0474 21.1288 29.1954 20.9848 29.1954 20.5449V19.7309C29.1954 19.295 29.0474 19.147 28.6403 19.147H18.7646V1.02378C18.7646 0.587965 18.6495 0.439953 18.2096 0.439953ZM8.18589 11.3928H2.09684V2.42167H8.18589C11.0105 2.42167 12.7619 4.08269 12.7619 6.90726C12.7619 9.73182 11.0146 11.3928 8.18589 11.3928ZM39.0053 3.23574L42.9441 13.317H35.0295C36.3534 9.95384 37.6814 6.59479 39.0053 3.23574ZM51.8618 0.731869C51.7426 0.563299 51.5945 0.439953 51.2492 0.439953H50.3159C49.8842 0.439953 49.7321 0.592076 49.7321 1.02378V20.5449C49.7321 20.9766 49.876 21.1288 50.3159 21.1288H51.2204C51.6274 21.1288 51.7754 20.9848 51.7754 20.5449L51.7837 4.43217C55.5909 9.88806 59.4227 15.3316 63.1971 20.8081C63.3656 21.0506 63.489 21.1288 63.8097 21.1288H64.743C65.1788 21.1288 65.3268 20.9848 65.3268 20.5449V1.02378C65.3268 0.587965 65.1829 0.439953 64.743 0.439953H63.8384C63.4067 0.439953 63.2546 0.592079 63.2546 0.995001V17.1201C59.4392 11.6642 55.6443 6.20009 51.8618 0.731869ZM8.36268 0.439953H0.583825C0.148012 0.439953 0 0.583853 0 1.02378V20.5449C0 20.9807 0.143901 21.1288 0.583825 21.1288H1.5459C1.98172 21.1288 2.10095 20.9848 2.10095 20.5449V13.3499H8.36268C12.4125 13.3499 14.9451 10.9611 14.9451 6.91137C14.9451 2.8616 12.4125 0.444062 8.36268 0.444062V0.439953Z" fill="white"/>
<path d="M138.276 27.8385C138.745 27.8385 138.942 28.2086 138.942 28.5991C138.942 28.9897 138.749 29.3515 138.301 29.3515H137.327V27.8426H138.28L138.276 27.8385ZM137.791 30.0875L139.107 31.8554C139.181 31.95 139.308 32.0075 139.432 32.0075C139.662 32.0075 139.851 31.8184 139.851 31.5882C139.851 31.51 139.83 31.4237 139.765 31.3374L138.696 30.0381C139.39 29.9518 139.81 29.2858 139.81 28.5991C139.81 27.781 139.259 27.0902 138.285 27.0902H136.903C136.673 27.0902 136.484 27.2794 136.484 27.5096V31.5923C136.484 31.8225 136.673 32.0116 136.903 32.0116C137.133 32.0116 137.322 31.8225 137.322 31.5923V30.0916H137.791V30.0875ZM132.816 30.6836L133.256 31.7321C133.322 31.8842 133.458 32.0075 133.647 32.0075C133.869 32.0075 134.058 31.8184 134.058 31.5964C134.058 31.5512 134.05 31.4936 134.029 31.4443L132.323 27.2917C132.278 27.1889 132.163 27.0327 131.941 27.0327C131.719 27.0327 131.599 27.193 131.558 27.2917L129.852 31.4443C129.831 31.4936 129.823 31.5512 129.823 31.5964C129.823 31.8184 130.012 32.0075 130.234 32.0075C130.423 32.0075 130.559 31.8842 130.625 31.7321L131.065 30.6836H132.812H132.816ZM132.533 29.9189H131.349L131.941 28.4018L132.533 29.9189ZM127.397 27.4479C127.397 27.2177 127.208 27.0286 126.978 27.0286C126.748 27.0286 126.559 27.2177 126.559 27.4479V31.5882C126.559 31.8184 126.748 32.0075 126.978 32.0075C127.208 32.0075 127.397 31.8184 127.397 31.5882V27.4479ZM121.995 31.1688V27.4479C121.995 27.2177 121.806 27.0286 121.576 27.0286C121.345 27.0286 121.156 27.2177 121.156 27.4479V31.5429C121.156 31.7732 121.329 31.9459 121.567 31.9459H123.705C123.944 31.9459 124.108 31.7814 124.108 31.5553C124.108 31.3291 123.944 31.1647 123.705 31.1647H121.995V31.1688ZM118.43 27.4479C118.43 27.2177 118.241 27.0286 118.011 27.0286C117.781 27.0286 117.592 27.2177 117.592 27.4479V31.5882C117.592 31.8184 117.781 32.0075 118.011 32.0075C118.241 32.0075 118.43 31.8184 118.43 31.5882V27.4479ZM112.559 31.1852C112.703 31.1852 112.843 31.1112 112.913 30.9838L114.048 28.9692V31.6005C114.048 31.8225 114.237 32.0116 114.459 32.0116C114.681 32.0116 114.87 31.8225 114.87 31.6005V27.4479C114.87 27.2218 114.681 27.0368 114.459 27.0368C114.278 27.0368 114.163 27.1396 114.089 27.267L112.555 30.0135L111.026 27.267C110.952 27.1355 110.837 27.0368 110.656 27.0368C110.434 27.0368 110.244 27.2259 110.244 27.4479V31.6005C110.244 31.8225 110.434 32.0116 110.656 32.0116C110.878 32.0116 111.067 31.8225 111.067 31.6005V28.9692L112.201 30.9838C112.275 31.1154 112.411 31.1852 112.555 31.1852H112.559ZM106.614 30.6836L107.054 31.7321C107.12 31.8842 107.255 32.0075 107.445 32.0075C107.667 32.0075 107.856 31.8184 107.856 31.5964C107.856 31.5512 107.847 31.4936 107.827 31.4443L106.121 27.2917C106.075 27.1889 105.96 27.0327 105.738 27.0327C105.516 27.0327 105.397 27.193 105.356 27.2917L103.65 31.4443C103.629 31.4936 103.621 31.5512 103.621 31.5964C103.621 31.8184 103.81 32.0075 104.032 32.0075C104.221 32.0075 104.357 31.8842 104.423 31.7321L104.863 30.6836H106.61H106.614ZM106.33 29.9189H105.146L105.738 28.4018L106.33 29.9189ZM99.7726 29.9107H101.138C101.339 29.9107 101.508 29.7462 101.508 29.5407C101.508 29.3351 101.343 29.1706 101.138 29.1706H99.7726V27.8344H101.606C101.816 27.8344 101.98 27.67 101.98 27.4603C101.98 27.2506 101.816 27.0861 101.606 27.0861H99.3532C99.123 27.0861 98.9339 27.2753 98.9339 27.5055V31.5882C98.9339 31.8184 99.123 32.0075 99.3532 32.0075C99.5835 32.0075 99.7726 31.8184 99.7726 31.5882V29.9107ZM93.6301 30.6836L94.07 31.7321C94.1358 31.8842 94.2715 32.0075 94.4606 32.0075C94.6826 32.0075 94.8717 31.8184 94.8717 31.5964C94.8717 31.5512 94.8635 31.4936 94.843 31.4443L93.1367 27.2917C93.0915 27.1889 92.9764 27.0327 92.7544 27.0327C92.5323 27.0327 92.4131 27.193 92.372 27.2917L90.6657 31.4443C90.6452 31.4936 90.637 31.5512 90.637 31.5964C90.637 31.8184 90.8261 32.0075 91.0481 32.0075C91.2372 32.0075 91.3729 31.8842 91.4387 31.7321L91.8786 30.6836H93.626H93.6301ZM93.3505 29.9189H92.1664L92.7585 28.4018L93.3505 29.9189ZM88.2153 27.4479C88.2153 27.2177 88.0262 27.0286 87.796 27.0286C87.5657 27.0286 87.3766 27.2177 87.3766 27.4479V31.5882C87.3766 31.8184 87.5657 32.0075 87.796 32.0075C88.0262 32.0075 88.2153 31.8184 88.2153 31.5882V27.4479ZM82.9691 32.0528C83.7421 32.0528 84.4205 31.7362 84.7699 31.2716C84.8152 31.214 84.8439 31.14 84.8439 31.0537C84.8439 30.8358 84.6713 30.6631 84.4534 30.6631C84.3506 30.6631 84.2601 30.7083 84.1409 30.8234C83.7955 31.177 83.5036 31.3004 82.9691 31.3004C82.007 31.3004 81.5753 30.7864 81.5753 29.5242C81.5753 28.3319 82.007 27.7398 82.9691 27.7398C83.4954 27.7398 83.8078 27.9208 84.1039 28.2456C84.1984 28.3483 84.2971 28.3895 84.3999 28.3895C84.6178 28.3895 84.7905 28.2168 84.7905 28.0071C84.7905 27.929 84.7699 27.855 84.7124 27.7686C84.4163 27.3369 83.8449 26.9875 82.9732 26.9875C81.5342 26.9875 80.7119 27.8097 80.7119 29.5242C80.7119 31.2387 81.5342 32.0528 82.9732 32.0528H82.9691ZM77.7969 27.0286C77.5749 27.0286 77.3858 27.2177 77.3858 27.4397V30.3013L75.2478 27.2012C75.1738 27.0944 75.0587 27.0286 74.9148 27.0286C74.6928 27.0286 74.5037 27.2177 74.5037 27.4397V31.5923C74.5037 31.8143 74.6928 32.0034 74.9148 32.0034C75.1368 32.0034 75.3259 31.8143 75.3259 31.5923V28.7472L77.4557 31.8266C77.5297 31.9335 77.6571 32.0075 77.7969 32.0075C78.023 32.0075 78.2081 31.8184 78.2081 31.5964V27.4438C78.2081 27.2177 78.0189 27.0327 77.7969 27.0327V27.0286ZM70.4868 25.7664C70.4292 25.7664 70.3716 25.7828 70.3223 25.8157L69.6521 26.2638C69.5781 26.3132 69.5206 26.3872 69.5206 26.5023C69.5206 26.6626 69.6439 26.786 69.8043 26.786C69.87 26.786 69.9358 26.7654 69.9687 26.7367L70.4909 26.3748L71.0089 26.7367C71.0459 26.7654 71.1117 26.786 71.1734 26.786C71.3337 26.786 71.4529 26.6626 71.4529 26.5023C71.4529 26.3872 71.3954 26.3132 71.3214 26.2638L70.6512 25.8157C70.6019 25.7787 70.5443 25.7664 70.4868 25.7664ZM69.7426 27.8385H71.5763C71.786 27.8385 71.9504 27.6741 71.9504 27.4644C71.9504 27.2547 71.786 27.0902 71.5763 27.0902H69.3232C69.093 27.0902 68.9039 27.2794 68.9039 27.5096V31.5347C68.9039 31.765 69.093 31.9541 69.3232 31.9541H71.6544C71.8641 31.9541 72.0286 31.7896 72.0286 31.5799C72.0286 31.3703 71.8641 31.2058 71.6544 31.2058H69.7385V29.8778H71.1035C71.3049 29.8778 71.4694 29.7133 71.4694 29.5078C71.4694 29.3022 71.3049 29.1377 71.1035 29.1377H69.7385V27.8426L69.7426 27.8385ZM66.0957 27.8262C66.2972 27.8262 66.4658 27.6617 66.4658 27.4562C66.4658 27.2506 66.3013 27.0861 66.0957 27.0861H63.0492C62.8477 27.0861 62.6791 27.2506 62.6791 27.4562C62.6791 27.6617 62.8436 27.8262 63.0492 27.8262H64.1551V31.5882C64.1551 31.8184 64.3443 32.0075 64.5745 32.0075C64.8047 32.0075 64.9939 31.8184 64.9939 31.5882V27.8262H66.0999H66.0957ZM59.8546 28.1222C59.9615 28.225 60.0642 28.2826 60.167 28.2826C60.3849 28.2826 60.5576 28.1099 60.5576 27.9002C60.5576 27.8139 60.5288 27.7357 60.4836 27.67C60.1958 27.2588 59.5668 26.9916 58.8431 26.9916C57.6961 26.9916 57.1821 27.6001 57.1821 28.3155C57.1821 30.0546 59.8176 29.5736 59.8176 30.6261C59.8176 31.0742 59.501 31.2921 58.8431 31.2921C58.3457 31.2921 57.9633 31.0455 57.6591 30.7412C57.585 30.6672 57.4987 30.5809 57.3425 30.5809C57.1328 30.5809 56.9601 30.7535 56.9601 30.9714C56.9601 31.0454 56.9807 31.1153 57.0177 31.1729C57.3014 31.6293 57.9839 32.0528 58.8473 32.0528C60.0396 32.0528 60.6604 31.5018 60.6604 30.622C60.6604 28.817 58.025 29.257 58.025 28.3113C58.025 28.0235 58.247 27.7398 58.8473 27.7398C59.2584 27.7398 59.6367 27.9043 59.8587 28.1222H59.8546ZM54.4562 27.4479C54.4562 27.2177 54.2671 27.0286 54.0369 27.0286C53.8066 27.0286 53.6175 27.2177 53.6175 27.4479V31.5882C53.6175 31.8184 53.8066 32.0075 54.0369 32.0075C54.2671 32.0075 54.4562 31.8184 54.4562 31.5882V27.4479ZM50.2955 28.1222C50.4023 28.225 50.5051 28.2826 50.6079 28.2826C50.8258 28.2826 50.9985 28.1099 50.9985 27.9002C50.9985 27.8139 50.9697 27.7357 50.9245 27.67C50.6367 27.2588 50.0077 26.9916 49.284 26.9916C48.1369 26.9916 47.623 27.6001 47.623 28.3155C47.623 30.0546 50.2584 29.5736 50.2584 30.6261C50.2584 31.0742 49.9419 31.2921 49.284 31.2921C48.7866 31.2921 48.4042 31.0455 48.0999 30.7412C48.0259 30.6672 47.9396 30.5809 47.7834 30.5809C47.5737 30.5809 47.401 30.7535 47.401 30.9714C47.401 31.0454 47.4215 31.1153 47.4586 31.1729C47.7422 31.6293 48.4247 32.0528 49.2881 32.0528C50.4805 32.0528 51.1013 31.5018 51.1013 30.622C51.1013 28.817 48.4659 29.257 48.4659 28.3113C48.4659 28.0235 48.6879 27.7398 49.2881 27.7398C49.6993 27.7398 50.0775 27.9043 50.2996 28.1222H50.2955ZM44.301 28.1222C44.4079 28.225 44.5106 28.2826 44.6134 28.2826C44.8313 28.2826 45.004 28.1099 45.004 27.9002C45.004 27.8139 44.9752 27.7357 44.93 27.67C44.6422 27.2588 44.0132 26.9916 43.2895 26.9916C42.1425 26.9916 41.6285 27.6001 41.6285 28.3155C41.6285 30.0546 44.264 29.5736 44.264 30.6261C44.264 31.0742 43.9474 31.2921 43.2895 31.2921C42.7921 31.2921 42.4097 31.0455 42.1055 30.7412C42.0314 30.6672 41.9451 30.5809 41.7889 30.5809C41.5792 30.5809 41.4065 30.7535 41.4065 30.9714C41.4065 31.0454 41.4271 31.1153 41.4641 31.1729C41.7478 31.6293 42.4303 32.0528 43.2937 32.0528C44.486 32.0528 45.1068 31.5018 45.1068 30.622C45.1068 28.817 42.4714 29.257 42.4714 28.3113C42.4714 28.0235 42.6934 27.7398 43.2937 27.7398C43.7048 27.7398 44.0789 27.9043 44.3051 28.1222H44.301ZM37.957 30.6836L38.3969 31.7321C38.4627 31.8842 38.5984 32.0075 38.7875 32.0075C39.0095 32.0075 39.1987 31.8184 39.1987 31.5964C39.1987 31.5512 39.1904 31.4936 39.1699 31.4443L37.4636 27.2917C37.4184 27.1889 37.3033 27.0327 37.0813 27.0327C36.8592 27.0327 36.74 27.193 36.6989 27.2917L34.9926 31.4443C34.9721 31.4936 34.9639 31.5512 34.9639 31.5964C34.9639 31.8184 35.153 32.0075 35.375 32.0075C35.5641 32.0075 35.6998 31.8842 35.7656 31.7321L36.2055 30.6836H37.9529H37.957ZM37.6774 29.9189H36.4933L37.0854 28.4018L37.6774 29.9189Z" fill="white"/>
</svg>
